<?xml version="1.0" standalone="no"?>
<!DOCTYPE svg PUBLIC "-//W3C//DTD SVG 1.1//EN" "http://www.w3.org/Graphics/SVG/1.1/DTD/svg11.dtd" >
<svg xmlns="http://www.w3.org/2000/svg" xmlns:xlink="http://www.w3.org/1999/xlink" version="1.1">
<metadata>
Created by FontForge 20170924 at Fri Mar  9 14:09:38 2018
 By www-data
Copyright(c) Beijing Founder Electronics Co.,Ltd.2010
</metadata>
<defs>
<font id="FZQKBYS" horiz-adv-x="256" >
  <font-face 
    font-family="FZQingKeBenYueSong"
    font-weight="400"
    font-stretch="normal"
    units-per-em="256"
    panose-1="2 0 0 0 0 0 0 0 0 0"
    ascent="204"
    descent="-52"
    x-height="121"
    cap-height="177"
    bbox="0 -47.0312 255 217"
    underline-thickness="12"
    underline-position="-52"
    unicode-range="U+0021-FF1F"
  />
<missing-glyph 
d="M16 34q15 -1 16 -18q-1 -15 -16 -16q-15 1 -16 16q1 17 16 18zM19 53h-6q-2 56 -8 84q-5 19 -5 31q0 13 17 13q16 0 16 -14q0 -11 -5 -30q-6 -34 -9 -84z" />
    <glyph glyph-name=".notdef" 
d="M16 34q15 -1 16 -18q-1 -15 -16 -16q-15 1 -16 16q1 17 16 18zM19 53h-6q-2 56 -8 84q-5 19 -5 31q0 13 17 13q16 0 16 -14q0 -11 -5 -30q-6 -34 -9 -84z" />
    <glyph glyph-name="exclam" unicode="!" horiz-adv-x="62" 
d="M29 34q15 -1 16 -18q-1 -15 -16 -16q-15 1 -16 16q1 17 16 18zM32 53h-6q-2 56 -8 84q-5 19 -5 31q0 13 17 13q16 0 16 -14q0 -11 -5 -30q-6 -34 -9 -84z" />
    <glyph glyph-name="quotedbl" unicode="&#x22;" horiz-adv-x="89" 
d="M34 163l-6 -43q-1 -6 -4 -7q-4 1 -5 7l-5 43q-2 18 10 18q13 0 10 -18zM72 163l-6 -43q-2 -6 -5 -6t-4 6l-5 43q-3 18 10 18q11 0 10 -18z" />
    <glyph glyph-name="numbersign" unicode="#" horiz-adv-x="118" 
d="M56 2l7 58h-22l-7 -58h-15l7 58h-18v10h20l6 45h-20v10h21l7 51h15l-7 -51h21l7 51h15l-6 -51h18v-10h-20l-6 -45h22v-10h-23l-8 -58h-14zM48 115l-6 -45h22l6 45h-22z" />
    <glyph glyph-name="dollar" unicode="$" horiz-adv-x="114" 
d="M53 -15v17q-42 3 -43 31q1 15 14 16q20 -4 11 -24q2 -12 18 -15v71q-40 17 -39 51q1 43 39 46v12h8v-12q39 -2 40 -29q-1 -14 -13 -15q-17 2 -10 24q-5 12 -17 12v-65q42 -20 41 -57q0 -41 -41 -46v-17h-8zM61 77v-67q19 6 21 30q0 23 -21 37zM53 110v60q-18 -2 -19 -28
q-1 -21 19 -32z" />
    <glyph glyph-name="percent" unicode="%" horiz-adv-x="173" 
d="M33 -2l-7 3l110 182l8 -6zM44 179q33 -2 34 -45q-2 -47 -34 -50q-33 2 -34 47q2 46 34 48zM31 139v-13q-1 -36 13 -34q14 -1 14 36v11q1 34 -14 32q-13 1 -13 -32zM127 94q33 -1 34 -48q-1 -45 -34 -46q-33 0 -34 45q2 47 34 49zM114 53v-12q0 -36 13 -34q14 -2 14 35v12
q0 33 -14 32q-13 0 -13 -33z" />
    <glyph glyph-name="ampersand" unicode="&#x26;" horiz-adv-x="158" 
d="M104 99h43v-7q-15 -1 -18 -14q-7 -22 -17 -37l14 -19q7 -11 22 -13v-7h-41l-12 16q-19 -18 -46 -18q-37 2 -39 43q0 34 31 52q-18 23 -18 42q1 41 42 42q36 -1 38 -36q2 -26 -37 -41l41 -55q11 17 12 32q1 11 -15 13v7zM62 108q23 15 23 36q0 26 -20 27q-19 -1 -20 -26
q-1 -14 17 -37zM91 25l-45 63q-12 -16 -12 -37q1 -38 27 -40q14 0 30 14z" />
    <glyph glyph-name="quotesingle" unicode="'" horiz-adv-x="48" 
d="M32 163l-6 -43q-1 -6 -4 -7q-4 1 -5 7l-5 43q-3 18 10 18t10 -18z" />
    <glyph glyph-name="parenleft" unicode="(" horiz-adv-x="85" 
d="M72 -18l-7 -6q-52 48 -50 111q-1 57 50 113l8 -5q-37 -49 -36 -108q-1 -60 35 -105z" />
    <glyph glyph-name="parenright" unicode=")" horiz-adv-x="84" 
d="M13 195l7 5q50 -55 50 -113q2 -62 -49 -111l-7 6q35 45 34 105q1 58 -35 108z" />
    <glyph glyph-name="asterisk" unicode="*" horiz-adv-x="116" 
d="M54 91l-21 -26q-5 -5 -9 -5q-10 4 -11 21q0 5 7 7l32 9l-30 11q-9 2 -8 7q2 19 12 21q4 0 7 -5l21 -28l-8 39q-1 7 -1 10q0 11 11 11q12 0 12 -11v-4q-1 -4 -1 -6l-8 -39l21 27q5 6 8 6q10 -3 13 -20q0 -5 -7 -7l-33 -12l32 -11q7 -2 7 -8q-2 -16 -12 -20q-3 0 -8 6
l-21 27l7 -37q1 -3 1 -7q1 -3 1 -4q0 -12 -12 -12t-12 12q0 1 1 5q1 3 1 5z" />
    <glyph glyph-name="plus" unicode="+" horiz-adv-x="112" 
d="M62 36h-14v48h-36v13h36v46h14v-46h36v-13h-36v-48z" />
    <glyph glyph-name="comma" unicode="," horiz-adv-x="69" 
d="M18 -31l-5 7q21 13 22 26q-21 -1 -22 20q0 20 20 20q20 -1 20 -25q1 -29 -35 -48z" />
    <glyph glyph-name="hyphen" unicode="-" horiz-adv-x="114" 
d="M99 84h-86v12h86v-12z" />
    <glyph glyph-name="period" unicode="." horiz-adv-x="67" 
d="M33 43q17 -1 18 -20q-1 -20 -18 -21q-19 1 -20 20q1 20 20 21z" />
    <glyph glyph-name="slash" unicode="/" horiz-adv-x="78" 
d="M20 -32h-11l47 216h12z" />
    <glyph glyph-name="zero" unicode="0" horiz-adv-x="115" 
d="M57 180q44 -1 44 -91t-44 -89q-46 -1 -45 89q0 91 45 91zM57 172q-21 1 -21 -83q0 -86 21 -83q21 -2 21 83q1 86 -21 83z" />
    <glyph glyph-name="one" unicode="1" horiz-adv-x="90" 
d="M77 3h-66v6q23 -1 22 27v101q1 25 -20 25v6l43 12v-143q-2 -30 21 -28v-6z" />
    <glyph glyph-name="two" unicode="2" horiz-adv-x="115" 
d="M96 60l7 -2l-4 -55h-86q3 52 40 85q24 21 24 48q0 37 -21 37q-15 -2 -18 -20q13 -23 -9 -29q-14 1 -14 18q3 37 42 39q42 -2 44 -45q1 -37 -38 -60q-28 -14 -36 -46h51q13 -3 18 30z" />
    <glyph glyph-name="three" unicode="3" horiz-adv-x="112" 
d="M38 89v9q35 4 35 41q0 33 -19 34q-15 -1 -17 -17q10 -23 -11 -27q-13 0 -13 17q3 33 42 35q40 -2 42 -43q0 -31 -39 -44q43 -10 41 -48q-1 -46 -45 -46q-44 2 -44 31q1 18 15 19q22 -5 11 -28q5 -16 18 -16q21 2 22 40q1 42 -38 43z" />
    <glyph glyph-name="four" unicode="4" horiz-adv-x="111" 
d="M98 3h-52v7q15 -1 14 20v19h-51v11l57 117h17v-117h17v-11h-17v-18q-1 -23 15 -21v-7zM60 60v83l-41 -83h41z" />
    <glyph glyph-name="five" unicode="5" horiz-adv-x="112" 
d="M22 177h70v-27h-63l-4 -57q13 16 31 16q40 -4 43 -53q-1 -54 -47 -56q-39 1 -41 30q1 17 14 18q22 -5 10 -27q5 -14 17 -14q23 2 24 48q0 44 -27 44q-16 0 -26 -25l-7 2z" />
    <glyph glyph-name="six" unicode="6" horiz-adv-x="113" 
d="M60 172q-23 -3 -24 -74q10 15 25 15q36 -6 39 -56q-2 -56 -44 -57q-43 0 -43 83q2 93 49 98q31 -2 34 -29q0 -16 -14 -16q-18 2 -10 25q-2 12 -12 11zM57 103q-19 -3 -21 -42q1 -52 20 -55q21 1 21 50q-1 44 -20 47z" />
    <glyph glyph-name="seven" unicode="7" horiz-adv-x="113" 
d="M19 120l-6 1l5 56h81v-17q-38 -74 -37 -145q0 -15 -14 -15q-13 0 -13 12q0 42 50 138h-47q-13 2 -19 -30z" />
    <glyph glyph-name="eight" unicode="8" horiz-adv-x="111" 
d="M95 140q-2 -28 -26 -40q31 -22 30 -52q-1 -47 -46 -48q-41 0 -42 40q0 31 27 47q-25 20 -25 46q2 46 42 48q38 -2 40 -41zM35 146q-1 -24 27 -43q16 16 15 39q-1 30 -22 31q-19 -3 -20 -27zM78 38q1 26 -32 44q-18 -15 -18 -39q1 -34 25 -36q23 3 25 31z" />
    <glyph glyph-name="nine" unicode="9" horiz-adv-x="113" 
d="M52 7q20 -2 24 74q-11 -16 -27 -16q-36 2 -37 55q1 58 43 60q41 -5 44 -85q0 -95 -48 -95q-33 0 -36 26q1 17 14 18q22 -3 12 -27q3 -10 11 -10zM55 172q-19 -2 -20 -51q0 -43 20 -44q21 0 21 46q-1 47 -21 49z" />
    <glyph glyph-name="colon" unicode=":" horiz-adv-x="64" 
d="M30 117q16 -1 17 -20q-1 -18 -17 -19q-15 1 -16 19q1 19 16 20zM30 37q16 -1 17 -20q-1 -17 -17 -18q-15 0 -16 18q1 19 16 20z" />
    <glyph glyph-name="semicolon" unicode=";" horiz-adv-x="63" 
d="M32 116q16 0 16 -19q-1 -18 -16 -19q-15 1 -16 19q1 18 16 19zM21 -31l-5 8q15 9 18 23q-19 -1 -18 17q2 17 15 19q19 -1 19 -22q0 -27 -29 -45z" />
    <glyph glyph-name="less" unicode="&#x3c;" horiz-adv-x="107" 
d="M97 150v-18l-70 -42l70 -43v-18l-88 57v8z" />
    <glyph glyph-name="equal" unicode="=" horiz-adv-x="99" 
d="M88 106h-79v12h79v-12zM88 61h-79v13h79v-13z" />
    <glyph glyph-name="greater" unicode="&#x3e;" horiz-adv-x="103" 
d="M78 90l-70 42v18l88 -56v-9l-88 -56v18z" />
    <glyph glyph-name="question" unicode="?" horiz-adv-x="104" 
d="M51 53h-8v6q0 20 14 40q16 24 15 41q-1 31 -21 33q-15 0 -20 -20q13 -24 -10 -30q-12 1 -13 17q3 39 44 41q40 -3 43 -41q0 -28 -22 -42q-22 -15 -22 -39v-6zM47 35q15 -1 16 -19q-2 -16 -16 -16q-15 0 -16 16q1 18 16 19z" />
    <glyph glyph-name="at" unicode="@" horiz-adv-x="169" 
d="M137 27l4 -10q-28 -17 -56 -17q-70 3 -73 81q4 92 81 97q62 -4 65 -79q-1 -54 -40 -65q-23 -5 -19 19q-12 -19 -29 -19q-23 1 -22 35q7 71 51 77q9 0 15 -10l2 7h18q-14 -63 -17 -88q-1 -7 5 -7q25 5 27 51q-1 68 -56 70q-55 -5 -58 -86q3 -68 52 -73q23 0 50 17zM78 46
q25 8 31 75q1 16 -9 16q-25 -6 -31 -70q0 -21 9 -21z" />
    <glyph glyph-name="A" unicode="A" horiz-adv-x="164" 
d="M91 3v7q22 0 17 14l-10 36h-50l-11 -36q-5 -13 19 -14v-7h-48v7q15 -1 20 15l48 152l13 1l44 -145q6 -23 23 -23v-7h-65zM51 70h44l-21 74z" />
    <glyph glyph-name="B" unicode="B" horiz-adv-x="136" 
d="M25 31v115q1 25 -17 23v8h64q51 1 50 -41q1 -32 -37 -43q42 -7 41 -43q1 -48 -56 -47h-62v6q18 -2 17 22zM49 97h19q31 0 31 39q-1 32 -32 33h-18v-72zM49 11h17q34 1 35 38q0 40 -34 40h-18v-78z" />
    <glyph glyph-name="C" unicode="C" horiz-adv-x="145" 
d="M128 175l2 -53l-7 -3q-14 55 -43 52q-40 -4 -42 -82q2 -75 44 -77q29 1 44 39l9 -5q-17 -46 -55 -46q-65 4 -68 88q3 88 68 92q20 0 34 -10z" />
    <glyph glyph-name="D" unicode="D" horiz-adv-x="154" 
d="M9 177h57q78 0 77 -86q1 -89 -76 -88h-58v8q18 -2 17 22v112q1 26 -17 24v8zM49 11h18q51 1 52 79q0 79 -53 79h-17v-158z" />
    <glyph glyph-name="E" unicode="E" horiz-adv-x="126" 
d="M25 33v112q1 25 -18 24v8h105l3 -42l-6 -2q-7 40 -34 36h-27v-72h19q23 -2 23 25h7v-60h-7q-1 29 -23 27h-19v-78h31q21 -5 33 41l6 -1l-4 -48h-107v8q19 -1 18 22z" />
    <glyph glyph-name="F" unicode="F" horiz-adv-x="123" 
d="M26 36v108q1 27 -17 25v8h103l4 -44l-8 -2q-7 42 -31 38h-28v-72h22q19 -2 20 24h7v-58h-7q-2 28 -20 26h-22v-52q-2 -28 19 -26v-8h-60v8q19 -1 18 25z" />
    <glyph glyph-name="G" unicode="G" horiz-adv-x="155" 
d="M91 83h53v-7q-15 2 -14 -22v-22v-20q-12 -1 -22 -6q-15 -6 -31 -6q-64 2 -66 87q3 89 69 92q20 0 34 -8l14 5l2 -48l-7 -2q-13 46 -43 44q-42 -4 -45 -81q1 -75 43 -80q12 0 28 8v37q1 23 -15 22v7z" />
    <glyph glyph-name="H" unicode="H" horiz-adv-x="160" 
d="M94 3v8q18 -3 16 26v54h-61v-55q-1 -27 17 -25v-8h-57v8q19 -2 18 25v106q2 30 -17 27v8h55v-8q-18 3 -16 -27v-43h61v43q1 29 -16 27v8h55v-8q-18 3 -16 -27v-105q-2 -29 17 -26v-8h-56z" />
    <glyph glyph-name="I" unicode="I" horiz-adv-x="77" 
d="M9 177h60v-8q-20 2 -19 -27v-106q-1 -27 19 -25v-8h-61v8q20 -2 19 25v106q1 29 -18 27v8z" />
    <glyph glyph-name="J" unicode="J" horiz-adv-x="103" 
d="M36 177h60v-8q-19 2 -18 -25v-103q0 -41 -38 -41q-33 0 -33 22q1 15 14 16q21 -3 13 -25q2 -7 9 -7q12 0 12 28v110q1 27 -19 25v8z" />
    <glyph glyph-name="K" unicode="K" horiz-adv-x="153" 
d="M140 177v-8q-17 1 -35 -23l-25 -34l42 -81q10 -19 23 -21v-7h-39l-41 89l-17 -22v-35q-1 -25 18 -25v-7h-59v7q19 -2 18 24v111q1 26 -17 24v8h57v-8q-18 2 -17 -24v-64l53 76q5 12 -14 12v8h53z" />
    <glyph glyph-name="L" unicode="L" horiz-adv-x="123" 
d="M115 58l-4 -55h-104v8q21 -3 19 25v108q1 27 -18 25v8h58v-8q-18 2 -17 -24v-134h26q23 -5 33 49z" />
    <glyph glyph-name="M" unicode="M" horiz-adv-x="193" 
d="M184 3h-60v8q20 -4 19 25v129l-50 -156h-9l-48 154v-125q-1 -29 20 -27v-8h-48v8q22 -2 20 27v104q2 29 -17 27v8h45l41 -131l41 131h46v-8q-20 2 -18 -23v-110q-3 -28 18 -25v-8z" />
    <glyph glyph-name="N" unicode="N" horiz-adv-x="153" 
d="M101 177h44v-8q-20 2 -18 -24v-142h-14l-79 145v-112q-2 -27 20 -25v-8h-46v8q19 -3 18 25v106q2 30 -18 27v8h38l73 -134v102q2 26 -18 24v8z" />
    <glyph glyph-name="O" unicode="O" horiz-adv-x="155" 
d="M76 180q65 -4 67 -91q-2 -87 -67 -89q-64 1 -66 87q3 90 66 93zM76 172q-41 -2 -42 -83q0 -81 42 -83q41 2 42 82q0 84 -42 84z" />
    <glyph glyph-name="P" unicode="P" horiz-adv-x="132" 
d="M25 36v108q1 27 -17 25v8h59q55 0 55 -48q1 -54 -54 -53h-20v-39q-1 -28 19 -26v-8h-59v8q18 -2 17 25zM48 83h13q36 1 37 45q0 41 -37 41h-13v-86z" />
    <glyph glyph-name="Q" unicode="Q" horiz-adv-x="156" 
d="M147 2l2 -5q-16 -12 -29 -12q-16 0 -28 16q-7 -1 -15 -1q-66 2 -67 88q3 88 66 93q65 -3 67 -92q0 -49 -29 -77q7 -14 21 -13q2 0 12 3zM44 37q8 26 26 25q18 4 37 -39q12 27 12 65q0 85 -43 85q-40 -2 -41 -83q0 -31 9 -53zM77 7q2 0 7 1h4q-17 42 -26 38q-8 0 -14 -21
q9 -17 29 -18z" />
    <glyph glyph-name="R" unicode="R" horiz-adv-x="145" 
d="M25 34v110q1 27 -17 25v8h58q55 0 55 -44q0 -31 -26 -43l24 -61q5 -15 19 -18v-8h-37l-28 81h-24v-49q-2 -26 17 -24v-8h-58v8q18 -2 17 23zM49 92h16q32 1 32 40q1 38 -34 37h-14v-77z" />
    <glyph glyph-name="S" unicode="S" horiz-adv-x="118" 
d="M100 177l1 -47l-6 -2q-12 46 -36 44q-23 -1 -24 -30q0 -21 34 -37q40 -19 39 -52q-1 -52 -50 -53q-12 0 -29 6l-13 -3l-1 50l7 1q8 -49 36 -46q27 1 28 29q0 26 -40 45q-32 15 -32 47q1 50 45 51q15 0 30 -7z" />
    <glyph glyph-name="T" unicode="T" horiz-adv-x="144" 
d="M40 3v8q22 -3 21 23v135q-36 1 -45 -54l-7 2l5 60h119l3 -60l-6 -2q-11 54 -46 54v-134q-2 -26 21 -24v-8h-65z" />
    <glyph glyph-name="U" unicode="U" horiz-adv-x="153" 
d="M101 177h45v-8q-21 3 -19 -29v-74q1 -66 -50 -66q-52 -1 -52 65v80q1 26 -18 24v8h59v-8q-19 2 -18 -24v-79q0 -56 36 -56t36 56v74q2 32 -19 29v8z" />
    <glyph glyph-name="V" unicode="V" horiz-adv-x="155" 
d="M82 3h-12l-40 140q-6 23 -23 26v8h61v-8q-22 3 -13 -27l29 -105l30 106q9 27 -13 26v8h46v-8q-18 0 -25 -27z" />
    <glyph glyph-name="W" unicode="W" horiz-adv-x="209" 
d="M51 145l21 -105l33 133h16l30 -132l22 101q7 28 -17 27v8h45v-8q-15 2 -22 -33l-29 -133h-14l-32 137l-34 -137h-13l-30 139q-5 27 -20 27v8h59v-8q-22 2 -15 -24z" />
    <glyph glyph-name="X" unicode="X" horiz-adv-x="151" 
d="M143 177v-8q-19 0 -32 -25l-26 -45l32 -66q7 -21 27 -23v-7h-61v7q17 0 12 13l-25 53l-28 -49q-9 -15 14 -17v-7h-49v7q17 1 29 22l29 53l-32 62q-8 19 -24 22v8h62v-8q-22 -1 -11 -22l20 -40l28 48q4 13 -14 14v8h49z" />
    <glyph glyph-name="Y" unicode="Y" horiz-adv-x="151" 
d="M42 3v8q20 -2 19 24v39l-34 75q-7 18 -20 20v8h61v-8q-11 0 -15 -5q-3 -5 2 -15l25 -59l28 58q5 12 2 16q-2 5 -15 5v8h48v-8q-16 0 -27 -24l-31 -64v-45q-2 -27 20 -25v-8h-63z" />
    <glyph glyph-name="Z" unicode="Z" horiz-adv-x="132" 
d="M22 123l-7 1l2 53h103v-8l-83 -158h38q30 -6 40 47l7 -2l-2 -53h-112v7l83 159h-31q-27 5 -38 -46z" />
    <glyph glyph-name="bracketleft" unicode="[" horiz-adv-x="68" 
d="M17 195h40v-8h-9q-8 0 -8 -13v-175q-1 -13 9 -12h8v-8h-40v216z" />
    <glyph glyph-name="backslash" unicode="\" horiz-adv-x="76" 
d="M10 195h16l39 -216h-15z" />
    <glyph glyph-name="bracketright" unicode="]" horiz-adv-x="66" 
d="M50 -21h-41v8h8q10 -1 10 13v174q0 13 -10 13h-8v8h41v-216z" />
    <glyph glyph-name="asciicircum" unicode="^" horiz-adv-x="78" 
d="M18 90h-11l19 87h26l19 -87h-11l-21 69z" />
    <glyph glyph-name="underscore" unicode="_" horiz-adv-x="114" 
d="M105 -27h-97v12h97v-12z" />
    <glyph glyph-name="grave" unicode="`" horiz-adv-x="63" 
d="M56 129l-4 -4l-37 31q-13 12 -4 23q11 9 21 -9z" />
    <glyph glyph-name="a" unicode="a" horiz-adv-x="106" 
d="M87 90v-65q-1 -14 11 -13l1 -8l-23 -2q-11 -2 -10 17q-11 -19 -31 -19q-25 3 -26 33q0 39 56 41v17q0 25 -14 26q-9 0 -14 -9q10 -21 -10 -24q-11 1 -12 14q4 25 36 27q35 0 36 -35zM65 47v20q-32 -2 -33 -32q0 -23 14 -23q18 2 19 35z" />
    <glyph glyph-name="b" unicode="b" horiz-adv-x="113" 
d="M6 158v8l36 11v-50v-22q7 19 24 19q35 -4 37 -62q-1 -60 -41 -62q-16 0 -26 16l-12 -15l-6 2l2 31v102q1 24 -14 22zM61 114q-19 -3 -20 -56q0 -48 20 -50q20 1 20 53q-1 50 -20 53z" />
    <glyph glyph-name="c" unicode="c" horiz-adv-x="96" 
d="M80 32l6 -4q-11 -28 -33 -28q-40 1 -41 61q1 62 41 64q28 -2 31 -27q0 -15 -13 -15q-16 4 -8 22q-1 12 -11 13q-18 -3 -17 -56q0 -50 22 -51q14 0 23 21z" />
    <glyph glyph-name="d" unicode="d" horiz-adv-x="116" 
d="M60 160v7l37 10q-2 -25 -2 -45v-102q-1 -21 12 -19v-7l-24 -2q-10 -2 -9 13q-9 -15 -26 -15q-35 2 -36 60q2 61 39 64q12 0 23 -12v25q1 24 -14 23zM54 114q-20 -1 -20 -53q0 -49 20 -50q20 0 20 52q-1 49 -20 51z" />
    <glyph glyph-name="e" unicode="e" horiz-adv-x="94" 
d="M79 34l7 -6q-12 -28 -34 -28q-40 1 -41 60q1 64 39 65q33 -2 34 -60h-50q0 -53 23 -53q14 0 22 22zM34 72h28q0 45 -14 46q-12 -2 -14 -46z" />
    <glyph glyph-name="f" unicode="f" horiz-adv-x="90" 
d="M68 121v-8h-24v-80q-2 -24 15 -22v-8h-51v8q15 -2 14 21v81h-14v8h14v20q1 35 33 36q25 -1 27 -23q0 -12 -13 -13q-16 2 -8 21q-2 7 -8 7q-9 -1 -9 -22v-26h24z" />
    <glyph glyph-name="g" unicode="g" horiz-adv-x="107" 
d="M96 111q-1 -8 -7 -4q-5 6 -11 5q9 -16 9 -31q-1 -39 -37 -41q-8 0 -14 3q-7 -6 -7 -13q0 -9 17 -10h8q6 1 9 1q31 -1 32 -27q-1 -39 -45 -40q-38 1 -40 27q0 13 15 19q-13 6 -13 21q-1 14 17 25q-15 11 -15 34q1 44 35 45q11 0 18 -2q12 1 21 1q8 0 8 -13zM49 118
q-13 0 -13 -37q0 -32 13 -33q15 1 15 33q-1 35 -15 37zM55 0h-23q-5 -5 -5 -14q1 -23 25 -24q24 1 25 21q1 17 -22 17z" />
    <glyph glyph-name="h" unicode="h" horiz-adv-x="119" 
d="M110 3h-45v8q13 -2 12 23v46q-1 28 -13 30q-19 -3 -21 -42v-34q-1 -25 12 -23v-8h-46v8q13 -2 12 22v103q1 25 -12 22v8l35 11q-1 -15 -1 -44v-30q11 21 29 21q27 -1 27 -41v-49q-1 -25 11 -23v-8z" />
    <glyph glyph-name="i" unicode="i" horiz-adv-x="68" 
d="M10 107v7l35 10v-90q-1 -25 15 -23v-8h-51v8q16 -2 15 23v53q0 21 -14 20zM35 178q12 -2 13 -16q0 -16 -13 -17q-13 1 -14 17q1 15 14 16z" />
    <glyph glyph-name="j" unicode="j" horiz-adv-x="83" 
d="M29 107v7l37 10q-1 -16 -1 -41v-86q0 -42 -34 -42q-20 1 -22 20q1 14 12 15q20 -4 10 -23q0 -3 5 -3q7 1 7 22v100q1 23 -14 21zM54 179q13 -2 14 -17q-1 -16 -14 -17q-13 1 -14 17q1 15 14 17z" />
    <glyph glyph-name="k" unicode="k" horiz-adv-x="114" 
d="M56 3h-49v8q14 -2 13 19v108q2 26 -13 23v5l36 11q-1 -15 -1 -44v-74l26 43q4 12 -10 11v8h44v-8q-15 1 -31 -20l-5 -10l23 -55q6 -15 18 -17v-8h-31l-24 57l-10 -14v-15q-1 -22 14 -20v-8z" />
    <glyph glyph-name="l" unicode="l" horiz-adv-x="63" 
d="M58 3h-51v8q16 -2 15 21v102q1 25 -14 23v8l35 12v-144q-1 -24 15 -22v-8z" />
    <glyph glyph-name="m" unicode="m" horiz-adv-x="163" 
d="M157 3h-44v8q12 -1 11 19v53q0 28 -13 28q-17 -5 -19 -34v-46q0 -21 11 -20v-8h-43v8q12 -2 11 20v49q0 31 -12 31q-16 -5 -18 -40v-41q-1 -21 11 -19v-8h-45v8q12 -1 11 19v57q1 21 -11 19v8l34 10v-22q9 22 27 21q17 0 23 -25q11 25 28 25q27 -1 27 -38v-55
q-1 -20 11 -19v-8z" />
    <glyph glyph-name="n" unicode="n" horiz-adv-x="112" 
d="M6 106v8l33 11v-24q11 22 28 22q27 1 27 -38v-56q-1 -19 12 -18v-8h-45v8q12 -2 11 17v51q1 33 -13 31q-18 -5 -20 -40v-42q-2 -19 11 -17v-8h-44v8q13 -2 11 18v57q1 23 -11 20z" />
    <glyph glyph-name="o" unicode="o" horiz-adv-x="104" 
d="M51 125q40 -2 41 -64q-1 -60 -41 -61q-41 0 -41 59q1 64 41 66zM51 118q-19 -1 -19 -58q0 -53 19 -54q18 0 18 55q0 56 -18 57z" />
    <glyph glyph-name="p" unicode="p" horiz-adv-x="112" 
d="M43 124v-16q8 15 24 15q34 -5 36 -60q-1 -62 -38 -63q-13 1 -22 10v-26q-1 -24 13 -22v-8h-48v8q15 -2 14 21v103q1 21 -14 20v8zM62 112q-19 -2 -20 -53q0 -48 20 -49q19 4 19 52q-1 48 -19 50z" />
    <glyph glyph-name="q" unicode="q" horiz-adv-x="108" 
d="M103 -46h-49v8q15 -1 14 19v31q-8 -12 -22 -12q-36 1 -37 61q2 61 40 63q15 0 26 -16l9 17l6 -2v-28v-113q-1 -21 13 -20v-8zM51 115q-19 -1 -19 -53q0 -49 18 -51q20 2 21 53q0 50 -20 51z" />
    <glyph glyph-name="r" unicode="r" horiz-adv-x="92" 
d="M7 116l36 9v-26q12 26 27 26q15 -1 16 -19q0 -16 -14 -16q-12 1 -11 16q-16 -6 -18 -36v-37q-1 -22 14 -22v-8h-50v8q15 -1 14 20v55q1 23 -14 22v8z" />
    <glyph glyph-name="s" unicode="s" horiz-adv-x="84" 
d="M69 124l2 -34l-6 -2q-8 30 -22 29q-12 0 -14 -16q0 -15 20 -27q27 -14 26 -38q-1 -35 -32 -36q-11 0 -21 5l-10 -2l-1 34l6 2q7 -35 26 -32q12 1 13 15q1 17 -23 30q-23 12 -23 36q2 35 33 37q9 0 17 -5z" />
    <glyph glyph-name="t" unicode="t" horiz-adv-x="71" 
d="M32 161h7v-40h21v-8h-21v-83q-1 -17 11 -17q3 0 11 7l3 -8q-10 -12 -25 -12q-23 0 -22 28v85h-10v8h3q16 -3 22 40z" />
    <glyph glyph-name="u" unicode="u" horiz-adv-x="115" 
d="M107 11l1 -7l-24 -2q-10 -1 -9 10v11q-9 -23 -29 -23q-27 0 -27 36v53q1 20 -12 20v9l34 6v-33v-49q-1 -28 15 -27q19 3 20 44v28q1 24 -13 22v7l35 8q-1 -15 -1 -35v-65q-1 -14 10 -13z" />
    <glyph glyph-name="v" unicode="v" horiz-adv-x="106" 
d="M65 121h34v-8q-10 0 -18 -24l-24 -86h-13l-25 94q-4 17 -13 16v8h46v-8q-15 0 -9 -19l15 -60l17 63q5 17 -10 16v8z" />
    <glyph glyph-name="w" unicode="w" horiz-adv-x="144" 
d="M52 38l18 80h13l19 -82l12 57q4 22 -11 21v7h34v-7q-11 0 -16 -24l-18 -87h-14l-19 78l-18 -78h-14l-20 94q-2 16 -11 17v7h41v-7q-11 -1 -7 -20z" />
    <glyph glyph-name="x" unicode="x" horiz-adv-x="104" 
d="M98 3h-50v8q13 1 8 10l-10 24l-12 -24q-3 -5 -2 -8q2 -2 9 -2v-8h-34v8q12 0 18 13l17 31l-19 43q-7 14 -16 15v8h45v-8q-6 1 -8 -1q-1 -3 1 -8l10 -25l13 22q3 7 2 9q-1 3 -7 3v8h34v-8q-11 2 -21 -16l-17 -27l20 -42q6 -16 19 -17v-8z" />
    <glyph glyph-name="y" unicode="y" horiz-adv-x="107" 
d="M66 121h34v-8q-11 1 -17 -20l-33 -110q-9 -31 -22 -30q-15 1 -15 17q1 14 13 15q11 -1 11 -10q3 2 7 14l4 14l-28 94q-4 15 -13 16v8h44v-8q-12 2 -7 -15l15 -56l16 53q7 18 -9 18v8z" />
    <glyph glyph-name="z" unicode="z" horiz-adv-x="91" 
d="M77 45l6 -1l-1 -41h-75v6l48 104h-16q-15 5 -24 -32l-5 1l2 39h69v-6l-48 -104h19q18 -4 25 34z" />
    <glyph glyph-name="braceleft" unicode="{" horiz-adv-x="68" 
d="M45 174v-52q0 -28 -24 -37q24 -8 24 -37v-48q-1 -14 10 -13h5v-8h-5q-35 0 -34 29v46q1 25 -14 28v7q15 4 14 27v47q-1 33 34 32h5v-8h-5q-11 1 -10 -13z" />
    <glyph glyph-name="bar" unicode="|" horiz-adv-x="43" 
d="M28 -29h-13v227h13v-227z" />
    <glyph glyph-name="braceright" unicode="}" horiz-adv-x="71" 
d="M24 0v48q-1 32 24 37q-26 6 -24 37v50q0 16 -10 15h-6v8h6q34 0 34 -32v-48q-1 -25 14 -26v-7q-15 -3 -14 -26v-48q-1 -28 -34 -29h-6v8h6q10 -1 10 13z" />
    <glyph glyph-name="asciitilde" unicode="~" horiz-adv-x="91" 
d="M80 101l4 -3q-9 -21 -21 -20q-4 0 -13 2q-4 1 -6 2q-10 5 -20 5q-8 0 -14 -9l-4 4q9 19 23 19q9 0 18 -4q12 -4 20 -4q8 -1 13 8z" />
    <glyph glyph-name="quotedblleft" unicode="&#x201c;" 
d="M223 204l4 -8q-17 -12 -17 -25q17 2 17 -18q-1 -18 -15 -19q-16 1 -16 24q0 29 27 46zM185 203l4 -8q-16 -11 -17 -25q17 2 17 -18q-1 -17 -15 -18q-16 0 -16 23q0 31 27 46z" />
    <glyph glyph-name="quotedblright" unicode="&#x201d;" 
d="M34 134l-5 8q16 11 18 25q-18 -3 -18 18q1 17 16 18q15 -1 15 -23q1 -30 -26 -46zM71 134l-4 8q15 10 17 24q-17 -1 -17 18q1 18 15 19q15 -1 16 -24q0 -29 -27 -45z" />
    <glyph glyph-name="ellipsis" unicode="&#x2026;" 
d="M43 77q-12 1 -13 13q1 11 13 12q12 -1 13 -12q-1 -12 -13 -13zM214 77q-12 1 -13 13q1 11 13 12q11 -1 12 -12q-1 -12 -12 -13zM128 77q-12 1 -13 13q1 11 13 12q12 -1 13 -12q-1 -12 -13 -13z" />
    <glyph glyph-name="uni3002" unicode="&#x3002;" 
d="M53 13v-8q0 -22 11 -21q11 -1 11 22v8q0 21 -11 21q-11 -1 -11 -22zM63 42q27 -2 28 -32q-1 -31 -28 -33q-26 1 -27 31q2 32 27 34z" />
    <glyph glyph-name="uni4E00" unicode="&#x4e00;" 
d="M54 95q-26 -2 -32 -4l-10 10l190 4l18 18l20 -20q1 -3 -2 -3z" />
    <glyph glyph-name="uni4E0A" unicode="&#x4e0a;" 
d="M59 -16q-26 0 -36 -4l-11 9l95 3l1 175l-2 46l32 -9q3 0 1 -4q-5 -3 -6 -10l-1 -75l58 1l15 17l19 -19q2 -2 -1 -2l-91 -3l-1 -117l70 1l18 16l21 -17q1 -3 -2 -3z" />
    <glyph glyph-name="uni4E0B" unicode="&#x4e0b;" 
d="M48 184q-18 -1 -27 -3l-9 9l192 3l17 17l21 -20q1 -1 1 -2t-2 -1l-123 -2l16 -6q1 0 1 -3l-1 -12v-113l1 -47q-3 -16 -24 -29q-4 -1 -5 5l2 66l1 111q-1 16 -3 28zM154 131q60 -27 65 -41q3 -18 -15 -30q-8 -4 -10 3q-13 39 -42 66q0 3 2 2z" />
    <glyph glyph-name="uni4E0D" unicode="&#x4e0d;" 
d="M68 179q-16 -1 -27 -3l-9 10l177 2l16 17l18 -19q1 -3 -1 -3l-80 -2l14 -13q1 -2 -3 -4q4 2 -1 -1q-8 -12 -17 -22l1 -139q-2 -16 -21 -26q-5 -1 -5 4l1 40l1 93q-59 -63 -126 -100q-2 -1 -3 0q0 1 1 3q78 50 123 130q0 2 -1 6q1 -2 -1 2q1 3 4 2l3 -2q8 14 14 27z
M184 112q45 -19 58 -43q7 -17 -9 -30q-11 -2 -13 7q-8 35 -37 64q-1 1 1 2z" />
    <glyph glyph-name="uni4E2A" unicode="&#x4e2a;" 
d="M121 216l26 -12q2 -1 2 -2l-2 -2l-5 -5q20 -42 112 -84q2 -4 0 -4q-14 1 -34 -20q-56 40 -80 105q-47 -73 -134 -125q-2 -1 -3 0q0 2 1 3q76 51 117 146zM148 124q1 0 1 -2l-2 -11l-1 -74l1 -36q-1 -17 -21 -32q-5 -2 -6 5l1 45l1 75q0 25 -2 42q-1 3 2 2z" />
    <glyph glyph-name="uni4E2D" unicode="&#x4e2d;" 
d="M52 67q-11 -21 -23 -15l-1 105q0 2 1 3q1 0 2 -1l19 -11l62 2v21l-1 44l30 -8q3 0 1 -3q-3 -3 -5 -10v-44l58 1l12 15l24 -14q2 -1 0 -3l-6 -9l1 -58l2 -6q2 -4 -3 -4q-25 3 -88 1v-46v-28q-5 -19 -22 -30q-3 -1 -5 4l2 49v51q-15 0 -40 -1h-20v-5zM51 142v-63l61 1v63z
M196 145l-59 -1v-63l60 1z" />
    <glyph glyph-name="uni4E4E" unicode="&#x4e4e;" 
d="M184 178l27 -17q3 -2 1 -3l-7 -5q-16 -21 -50 -64l49 2l16 17l22 -19q2 -1 -1 -3l-101 -3v-34l1 -33q0 -31 -39 -46q-2 -1 -2 0q-1 1 0 3q1 17 -9 23q-1 1 -1 2t2 1q26 -3 24 8v75l-67 -1q-19 -1 -26 -4l-8 9l101 2v48q0 11 -1 29v15q-31 -3 -69 -6q-3 0 -1 3
q101 17 141 35l17 -20q2 -3 -2 -4q-11 -1 -45 -5q-16 -1 -25 -2l12 -4q1 -1 1 -3l-4 -9v-76h11q26 53 33 89zM52 159q30 -18 41 -35q1 -10 -13 -20q-9 -4 -10 4q-4 29 -19 50q-1 2 1 1z" />
    <glyph glyph-name="uni4E50" unicode="&#x4e50;" 
d="M187 206l19 -20q2 -2 1 -2q0 -1 -2 -1q-13 -3 -118 -11l-2 -2l-16 -74l59 1v31l-1 28q-1 2 0 3h2l26 -11q2 0 1 -3l-3 -7v-40l46 1l16 16l18 -17l1 -2q-1 -1 -2 -1l-79 -2l-1 -42l1 -41q1 -22 -34 -40q-2 -1 -3 2q0 15 -10 21q-2 1 0 3q24 -2 21 6l1 90l-84 -2q-3 3 0 4
q8 1 9 12l7 55l2 30q0 3 2 1l25 -14q69 14 98 28zM87 80l23 -14q4 -1 0 -5q-36 -43 -92 -83q-2 -1 -3 0q-1 2 0 3q43 33 72 99zM167 70q54 -26 60 -36q2 -13 -9 -24q-8 -9 -14 5q-15 34 -38 52q-1 2 1 3z" />
    <glyph glyph-name="uni4E86" unicode="&#x4e86;" 
d="M115 146l16 -6l46 46l-107 -4q-21 -2 -31 -5l-10 9l151 6l14 13l26 -24q2 -2 1 -4q-1 -1 -4 -1q-23 -2 -82 -38l10 -3q2 -2 0 -3q-3 -6 -4 -9l1 -70v-36q1 -28 -36 -46q-4 -2 -5 3q1 16 -12 26q-2 0 -1 1q0 1 2 1q28 -3 26 8l-1 85q-1 34 -1 49q-1 3 1 2z" />
    <glyph glyph-name="uni4EE5" unicode="&#x4ee5;" 
d="M179 199l35 -14q4 -1 0 -5l-8 -10v-72q-1 -37 -19 -61q32 -9 40 -24q2 -21 -17 -26q-8 0 -10 9q-8 22 -18 35q-23 -28 -121 -57q-2 0 -2 2q0 1 2 2q127 35 120 125v58q0 6 -1 19q0 15 -1 19zM132 130q2 1 3 0q0 -1 -1 -3l-57 -86q-11 -16 -40 -63q-2 -3 -5 0q-1 3 -4 11
q-4 9 -5 11q0 5 2 7l20 20l-2 132q0 7 -1 19q0 14 -1 19l28 -11q2 -1 0 -4l-5 -7l-4 -133q2 4 8 10q3 3 4 5zM114 200q32 -13 31 -28q-2 -11 -14 -17q-10 -3 -10 6q-1 24 -10 37q-1 1 0 2t3 0z" />
    <glyph glyph-name="uni4F1A" unicode="&#x4f1a;" 
d="M70 64q-3 0 -8 -1q-13 0 -18 -2l-9 8l154 2l14 15l19 -16l1 -2q-1 -1 -2 -1l-106 -2l20 -10q2 -2 -1 -4l-6 -6q-27 -27 -49 -45l99 8q-6 11 -19 28q0 2 2 2q2 -1 6 -4q39 -26 42 -35q2 -11 -14 -24q-5 -2 -7 4q0 2 -1 5q-4 16 -8 20q-85 -17 -115 -31q-4 -3 -5 1l-10 21
l-1 2q1 1 2 1l22 2q25 37 35 65zM119 213l25 -10q2 -1 2 -2t-2 -2l-3 -3q34 -55 112 -88q2 -2 -1 -4q-12 1 -29 -17q-59 44 -85 105h-1q-44 -68 -133 -128q-2 0 -2 3q73 55 117 146zM113 106q-14 0 -27 -2l-9 7l75 2l14 15l18 -17q2 -2 -1 -2z" />
    <glyph glyph-name="uni4F3C" unicode="&#x4f3c;" 
d="M181 199l27 -12q4 -1 1 -4l-5 -8v-75q-1 -44 -12 -66q35 -11 42 -24q2 -18 -16 -23q-6 -1 -10 8q-6 20 -19 34q-15 -29 -89 -53q-2 -1 -2 1q-1 1 1 2q56 21 68 43q15 19 15 81v57q0 31 -1 39zM7 72q-2 -1 -3 0t0 2q47 60 69 136l19 -9q2 -1 0 -3l-3 -4q-8 -20 -19 -38
l-2 -152q0 -12 -11 -27q-6 -5 -7 0l2 67l2 86q-20 -29 -47 -58zM168 111q4 1 2 -2l-37 -57q-10 -13 -35 -54q-2 -3 -5 0q-5 9 -8 20q0 1 1 4v2q9 7 17 16l-2 108q0 24 -2 35l27 -10q2 -2 0 -4l-4 -6l-3 -107q1 1 4 5l6 6zM135 204q31 -13 29 -28q-1 -11 -13 -15q-7 -3 -8 4
q0 -1 0 1q0 22 -10 35q-1 1 0 3q0 1 2 0z" />
    <glyph glyph-name="uni4F60" unicode="&#x4f60;" 
d="M5 72q-2 -1 -3 0q0 2 1 3q71 59 100 135l20 -13q3 -1 0 -5q-23 -37 -41 -55l-1 -136q-2 -13 -14 -27q-6 -5 -7 0l2 67l1 78q-24 -22 -58 -47zM182 13q1 -24 -29 -40q-2 -1 -3 1q0 15 -9 19q-2 0 0 3q20 -1 17 5l1 110l-2 27q0 5 2 3l25 -7q3 -1 1 -4l-2 -7l-1 -77v-33z
M211 168l10 11l26 -22q3 -3 -1 -5q-17 0 -40 -14q-3 -1 -2 2l7 23l-67 -1q-18 -26 -49 -55q-1 -1 -2 0q-2 1 -1 2q38 45 53 101l23 -11q2 -1 0 -3l-3 -4l-6 -9q-7 -11 -11 -16zM126 102l22 -9q2 -1 2 -2q1 0 -1 -2q-24 -46 -57 -83q-2 -1 -3 -1q-1 1 0 3q26 40 37 94z
M193 93q43 -28 49 -44q1 -11 -11 -20q-4 -4 -7 -3q-3 2 -4 8q-7 28 -29 57q-1 3 2 2z" />
    <glyph glyph-name="uni4FEE" unicode="&#x4fee;" 
d="M4 67q-1 -1 -2 0q-1 2 0 3q53 57 85 145l22 -13q2 -1 0 -4l-4 -4q-13 -25 -28 -46l-2 -144q-2 -15 -12 -27q-6 -5 -7 0l2 67l2 82q-26 -32 -56 -59zM251 97q3 -2 0 -4q-11 -1 -23 -17q-40 27 -53 46q-30 -30 -58 -52q-3 -1 -2 2q30 28 53 60q-10 19 -15 33l2 2
q9 -16 19 -27q14 20 24 39l-40 -2q-19 -27 -36 -46q-3 -4 -2 1q22 36 32 80l19 -8q5 -1 1 -7q-6 -7 -10 -15l37 2l9 9l17 -16q2 -2 0 -4l-9 -6q-20 -24 -32 -36q21 -17 67 -34zM100 161l13 -7q3 -1 1 -6l-1 -93q-1 -14 -11 -25q-2 -2 -4 -1q-1 0 -1 2l1 128q0 3 2 2zM86 -33
q-2 -1 -3 0q0 2 2 3q79 30 127 79l18 -16q2 -1 -1 -3l-4 -2q-55 -33 -139 -61zM193 72l14 -12q2 -1 0 -3q-30 -22 -93 -48q-2 0 -1 2q46 26 78 60q1 1 2 1zM179 101l17 -12q2 -2 0 -2q-36 -26 -80 -46q-2 0 -1 2q38 25 64 58z" />
    <glyph glyph-name="uni5165" unicode="&#x5165;" 
d="M80 186l-9 7l47 2l6 9l13 -8q2 0 0 -2l-7 -6q-4 -126 114 -188q2 0 2 -1t-2 -2q-15 3 -36 -15q-66 47 -77 126q-19 -73 -119 -139q-2 -1 -3 0q0 2 1 3q86 64 115 195v12q-1 7 -1 11l-25 -1q-7 0 -19 -3z" />
    <glyph glyph-name="uni5173" unicode="&#x5173;" 
d="M78 150q-14 0 -27 -2l-9 7l43 1l-1 39q0 10 -1 12q0 2 3 1l18 -7q2 -1 2 -4l-1 -41l38 1l19 57l24 -13q2 0 0 -2l-5 -5l-20 -36h19l13 14l17 -16l1 -1q0 -1 -2 -2l-71 -1q-1 -33 -4 -57l74 1l15 15l18 -18q2 -2 0 -2l-98 -2q7 -59 104 -96q2 -1 2 -3q-1 -1 -3 -1
q-19 -1 -32 -16q-69 35 -74 116h-6q-4 -85 -129 -118q-2 -1 -2 1t1 3q101 31 106 114l-59 -1q-18 0 -27 -3l-7 8l94 1q3 25 3 57z" />
    <glyph glyph-name="uni518D" unicode="&#x518d;" 
d="M179 163l23 -12q2 0 0 -2l-7 -9l2 -79l18 1l14 15l19 -18q2 -3 -1 -3l-50 -1l1 -28q3 -42 -36 -55q1 19 -9 24q-2 0 -1 2q0 2 2 2q21 -3 19 17v38l-92 -2l-1 -53q-1 -13 -14 -27q-4 -3 -5 -3q-2 0 -2 4l1 79l-16 -1q-10 0 -24 -2q-2 -1 -3 -1l-9 9l52 1l1 57q0 26 -2 43
q0 2 2 1l22 -12l32 1l-1 37l-46 -1q-15 -1 -28 -3l-7 8l156 2l15 15l18 -17q1 -1 -1 -3l-101 -1l23 -9q3 0 1 -3q-5 -5 -6 -10v-14l32 1zM82 101l-1 -42l34 1v41h-33zM138 101l1 -41l34 1l-1 41zM172 144h-34v-37l34 1v36zM82 140v-34h33v37h-31z" />
    <glyph glyph-name="uni51FA" unicode="&#x51fa;" 
d="M188 85l29 -12q3 -1 0 -4l-3 -7v-48q0 -18 -20 -33q-4 -3 -6 2q-4 15 -7 18l-118 -1v-2q-3 -15 -14 -22q-5 -4 -7 1l1 74v30l22 -9q3 -1 1 -3l-2 -6l-1 -58h51v107l-42 -1q-3 -12 -15 -22q-6 -4 -7 1l1 69l-1 27l23 -10q2 -1 1 -4l-2 -6v-50l42 1l-1 51l-1 45l30 -8
q3 0 0 -4q-3 -1 -5 -10l-1 -74l47 1l1 2l1 49l-1 17l29 -12q4 -1 1 -4l-4 -7v-37q0 -19 -19 -33q-4 -3 -6 2q-4 13 -8 18l-41 -1l-1 -106h51q1 0 1 2l1 58v19z" />
    <glyph glyph-name="uni522B" unicode="&#x522b;" 
d="M68 131q-6 -12 -11 -16q-6 -3 -6 1l1 30v34q0 5 -1 14v7q0 3 2 1l17 -12l49 2l8 12l21 -12q2 -2 0 -3l-5 -7v-37q1 -9 -11 -23q-5 -6 -9 -1l-3 6q-3 4 -4 6zM76 126l24 -9q3 -1 1 -3l-3 -7q0 -3 -1 -9v-7l30 1l12 13l20 -14l2 -1l-2 -2l-7 -9q0 -5 -1 -20q-2 -41 -3 -44
q-4 -21 -33 -37q-3 -1 -4 2q2 17 -8 20q-2 0 -1 2q0 2 2 1q22 0 22 13q3 13 3 71l-33 -2q-2 -72 -90 -117q-2 -1 -3 0q-1 2 1 3q69 41 70 113l-19 -1h-2q-15 -2 -19 -4l-8 8l49 3q0 5 1 11v6q-1 15 0 19zM212 207l25 -11q2 -1 0 -3l-5 -9v-161q2 -32 -27 -46q-2 -1 -3 -1
q-1 1 -1 3q1 14 -8 19q-1 1 -1 2h2q18 0 16 10l1 146q-1 34 -1 49q0 3 2 2zM120 187l-51 -3v-48l50 3zM178 164l13 -7q3 -1 2 -6l-1 -92q-2 -16 -12 -26q-4 -3 -6 1l1 128q0 2 1 2q0 1 2 0z" />
    <glyph glyph-name="uni522E" unicode="&#x522e;" 
d="M100 173l-2 -14l-2 -28l30 1l12 13l17 -16q2 -1 -1 -3l-59 -1l-3 -52l16 1l11 13l22 -13q2 -1 0 -3l-6 -9l1 -58l1 -4q1 -3 0 -3q0 -1 -2 -1q-39 3 -78 3v-9q-3 -11 -15 -18q-5 -3 -6 2l1 71l-1 36q0 3 2 1q0 1 1 0l18 -10h17v53l-27 -1q-14 0 -24 -3l-8 9l59 1v48
q-23 -3 -44 -6q-3 0 -1 2q70 21 86 33l17 -18q1 -1 -2 -3q-6 -1 -28 -4q-13 -2 -21 -3zM202 209l28 -11q2 0 0 -3l-5 -8v-128l1 -39q0 -29 -31 -47q-2 -1 -3 -1q-1 1 -1 4q2 11 -8 18q-2 3 1 4q19 -3 17 9v152q0 12 -1 32v16q0 3 2 2zM57 66v-63l52 1v64zM164 166l17 -7
q3 -1 2 -6l-1 -94q-2 -16 -15 -26q-6 -4 -7 1l2 130q-1 3 2 2z" />
    <glyph glyph-name="uni5230" unicode="&#x5230;" 
d="M62 185q-18 0 -28 -3l-8 7l98 2l14 14l15 -15q2 -3 -1 -3l-68 -1l18 -13q2 -1 0 -3q-14 -12 -48 -46q26 1 69 3q-3 12 -15 25q-2 2 1 2q33 -14 39 -27q5 -18 -11 -25q-7 -2 -10 6q-1 8 -3 14q-7 -1 -20 -4q-14 -4 -20 -5l20 -7q4 -2 1 -5q-4 -4 -4 -15v-17l22 1l13 13
l17 -15q1 -1 -1 -3l-51 -1v-47l56 9q2 1 1 -2l-114 -40q-5 -2 -8 2l-11 17l-1 2q1 1 2 1q3 0 11 1q15 2 24 3l18 3v50h-15q-3 0 -8 -1q-13 0 -19 -2l-8 8l50 1l1 16q-1 17 -1 26q-2 0 -5 -1q-19 -4 -33 -10q-2 0 -3 2l-9 19q0 3 1 2h12q20 28 37 62h-17zM205 209l27 -11
l2 -1l-2 -2l-5 -9v-165q1 -31 -30 -47q-1 -1 -2 0q-1 0 -1 3q1 12 -8 18q-2 2 -1 3q0 1 2 1q19 -3 17 9v150q0 13 -1 34v15q-1 3 2 2zM169 170l16 -7q3 -1 1 -6l-1 -95q0 -14 -13 -25q-6 -3 -6 1l1 130q0 3 2 2z" />
    <glyph glyph-name="uni524D" unicode="&#x524d;" 
d="M110 145l23 -12q3 -2 1 -4l-5 -8v-77l1 -35q-1 -19 -26 -34q-4 -1 -3 2q0 12 -8 15q-1 1 -1 2t1 1q13 0 12 5l-1 123q0 4 -4 5l-34 -3v-31l28 3q3 0 3 -2q0 -3 -3 -3l-28 -3l-1 -32l29 2q3 0 3 -2t-3 -3l-29 -3v-46q0 -11 -13 -28q-3 -2 -4 -2q-2 1 -2 3l1 47l1 85
q0 8 -1 20v7q0 3 2 2l17 -8l34 2zM189 154l24 -11l2 -1l-2 -2l-3 -9v-109q2 -31 -28 -47q-2 -1 -3 -1q-1 1 -1 4q1 12 -8 18q-1 1 -1 2q1 2 2 1q18 -1 16 10l1 94q-1 34 -1 49q-1 3 2 2zM159 216l26 -13q2 -1 0 -3l-5 -5l-15 -28l43 1l14 15l20 -16q1 -3 -1 -3l-190 -5
q-18 -1 -28 -3l-8 8l69 2l-1 22q0 14 -1 16q0 3 3 2l20 -9q1 0 1 -3l-1 -28l40 1zM154 131l14 -8q3 -1 2 -5l-1 -60q-1 -13 -13 -24q-5 -4 -6 1l1 94q0 3 3 2z" />
    <glyph glyph-name="uni529B" unicode="&#x529b;" 
d="M117 213l26 -9q3 -1 1 -3l-3 -6q-1 -22 -1 -42l53 1l12 14l24 -15q3 -1 1 -3l-9 -11q0 -10 -1 -42q-1 -37 -1 -50q0 -23 -2 -31q-7 -25 -39 -39q-3 -1 -3 2q0 17 -8 21q-2 1 -2 2q0 2 2 1q23 -2 23 17q4 46 5 128l-56 -2q-2 -84 -29 -117q-25 -35 -102 -59q-2 -1 -2 1
t1 3q65 24 86 58q23 33 25 113l-25 -1q-24 0 -38 -4l-9 10l72 2q0 27 -1 61z" />
    <glyph glyph-name="uni529F" unicode="&#x529f;" 
d="M151 212l23 -10q3 -2 1 -5l-2 -7v-34l27 1l10 13l23 -13q2 -1 -1 -3l-7 -9l-1 -65l1 -54q0 -26 -30 -44q-2 -1 -3 0q-2 1 -1 3q1 12 -8 16q-1 1 -1 2t2 1q18 0 16 12l1 136l-28 -1v-33q9 -104 -126 -150q-4 1 -1 5q112 44 106 145v32h-5q-14 0 -23 -3l-7 7l35 1v19
q0 31 -1 38zM23 165q-4 3 0 6l76 2l13 14l17 -15q2 -2 0 -3l-44 -1l-2 -107l47 17q4 1 2 -2l-61 -40q-6 -4 -16 -10q-12 -8 -17 -11l-1 -1q-1 -2 -3 0l-18 21q-3 3 0 4q19 3 40 12l5 1l-1 115z" />
    <glyph glyph-name="uni52A1" unicode="&#x52a1;" 
d="M95 215l22 -14q3 -1 -1 -4l-5 -5q-3 -5 -7 -8l56 2l15 13l23 -18l2 -2q-1 -1 -2 -1l-11 -7q-3 -3 -10 -8q-23 -20 -35 -28q26 -13 106 -32q2 0 2 -1q0 -2 -2 -2q-14 -2 -32 -22q-60 21 -89 48q-37 -24 -104 -50q-2 -1 -3 0t1 3q57 28 95 59q-12 15 -23 33
q-23 -25 -54 -49q-2 -1 -3 0t0 2q36 39 56 90q0 1 1 2zM100 109l25 -9q2 -1 0 -3l-3 -7v-8q-1 -6 -1 -9l44 3l11 13l24 -15q2 -2 0 -4l-7 -9q0 -6 -1 -20q-1 -27 -2 -30q-6 -21 -38 -37q-3 -1 -3 2q2 16 -8 22q-2 0 -1 2h2q22 0 21 13q3 11 3 57l-46 -2q-5 -71 -113 -103
q-2 -1 -3 1q0 2 2 3q88 27 92 98l-29 -2l-20 -2l-8 7l58 2q0 2 1 6v6v25zM157 181l-58 -3q-1 -3 -4 -4q13 -17 29 -29q15 13 33 36z" />
    <glyph glyph-name="uni52AA" unicode="&#x52aa;" 
d="M104 98l25 -9q2 0 0 -4l-3 -7q0 -2 -1 -6v-4l48 2l10 13l25 -15l2 -1q0 -1 -2 -2l-6 -10q-2 -37 -4 -48q-5 -18 -37 -35q-4 -1 -4 2q2 13 -7 19q-2 1 -2 2q0 2 2 2q21 -2 22 11q3 24 2 56l-50 -2q-6 -68 -115 -95q-2 -1 -2 1q-1 1 1 2q87 27 94 91l-25 -1q-16 -1 -27 -4
l-8 8l60 3q1 2 1 5zM52 172q-15 -1 -26 -3l-9 7l43 1q8 17 14 37l24 -13q2 -1 0 -3l-7 -5l-12 -16l22 1l9 10l20 -11q2 0 0 -2l-7 -8q-15 -21 -31 -34q20 -4 26 -9q7 -4 4 -18q-2 -9 -9 -4q-15 13 -31 22q-20 -18 -72 -45q-2 0 -3 2q-1 1 1 2q39 21 62 47q-8 4 -26 7
q-1 1 -2 1l16 34h-6zM136 179q-2 0 -2 3q0 2 2 2l56 2l9 11l20 -13q3 -1 0 -4l-7 -8q-20 -25 -31 -36q18 -13 66 -29q3 -3 -1 -4q-15 1 -33 -16q-31 21 -45 39q-11 -9 -42 -28q-4 -3 -6 -4t-3 0q0 1 1 3q29 21 43 39q-7 12 -18 43h-9zM50 141q13 -2 25 -5q14 17 26 37
l-26 -1zM191 182l-43 -2q9 -21 23 -34q14 21 20 36z" />
    <glyph glyph-name="uni5355" unicode="&#x5355;" 
d="M154 214l22 -14q2 0 0 -3l-6 -4l-32 -30l35 1l9 12l22 -12q2 0 1 -2l-5 -9v-28l1 -27q-1 -12 -13 -25q-5 -4 -8 0q-6 10 -9 13h-33v-34l70 1l17 16l17 -17q1 -3 -1 -3l-103 -2v-5l1 -43q-4 -16 -15 -27q-8 -7 -9 0l1 74l-67 -1q-19 -1 -28 -3l-6 8l101 1v34l-37 -1
q-6 -10 -13 -15q-6 -3 -7 2l1 43v39l-1 19q-1 3 2 1l18 -11l52 1zM174 159l-36 -1v-29h26q2 1 2 -2q-1 -2 -3 -2h-25v-35l36 1v68zM79 123v-34l37 1v34zM79 157v-30l37 1v30zM80 207q32 -11 31 -18q1 -11 -9 -16q-6 -3 -8 3q-5 20 -15 29q-1 2 1 2z" />
    <glyph glyph-name="uni5373" unicode="&#x5373;" 
d="M84 70q45 -25 50 -36q3 -14 -11 -27q-7 -4 -9 3q-5 20 -12 31l-66 -53q-1 -2 -3 0l-11 15q-2 2 1 3l13 7l-1 161l-1 27q0 2 1 2q0 1 2 -1l19 -12l45 1l9 11l20 -12q3 -2 1 -4l-7 -8v-75l2 -3q1 -3 -2 -2h-9q-34 1 -60 -1l-1 -77l46 25q-7 12 -17 22q-1 2 1 3zM212 199
l20 -12q2 -1 0 -3l-5 -8v-72l1 -32q-4 -20 -28 -33q-2 0 -2 2q0 14 -7 18q-1 2 0 3q14 0 14 4l-2 117l-37 -1v-11v-121l1 -42q0 -19 -15 -39q-3 -3 -5 -2t-2 4l1 64v126q0 5 -1 14q0 22 -2 29l23 -12v-6l37 2zM94 148l-39 -1v-44l45 1l1 82l-45 -1l-1 -34l39 1q2 0 2 -2
t-2 -2z" />
    <glyph glyph-name="uni5386" unicode="&#x5386;" 
d="M131 177l27 -10q2 0 0 -3l-3 -7q1 -7 0 -20v-9l39 1l12 14l24 -16q2 -2 0 -4l-8 -10q-2 -77 -5 -97q-5 -21 -37 -37q-3 -1 -4 2q1 16 -7 20q-2 1 -2 2q0 2 2 2q23 -1 22 13q2 7 3 43q2 44 1 62l-40 -1q4 -100 -106 -155q-2 -1 -3 0q0 3 2 4q88 45 85 151h-5h-4
q-18 -2 -22 -3l-8 7l39 1v21zM68 202q-1 3 1 2l24 -11l113 2l14 16l20 -17q2 -3 -1 -3l-148 -4v-67q6 -78 -86 -141q-2 -1 -2 1t2 3q39 32 52 64q13 30 12 86v39z" />
    <glyph glyph-name="uni53D6" unicode="&#x53d6;" 
d="M127 77l1 -2l-12 -6v-23l2 -38q-4 -10 -17 -21q-3 -3 -4 -2q-2 1 -2 4l1 55v14l-40 -21q-2 -1 -4 -3q-14 -7 -23 -14q-2 -3 -5 0l-13 16q-2 3 1 3q7 2 25 7l9 3l-1 136q-15 0 -25 -2l-7 7l104 2l14 13l16 -16q2 -2 -1 -2l-41 -1l15 -7q2 -1 0 -3l-2 -6l-2 -96zM149 150
q5 -45 24 -76q18 46 24 93l-60 -2q-3 0 -3 3q0 2 3 2l60 3l10 11l22 -14q3 -3 0 -4l-8 -8q-16 -65 -38 -101q23 -34 64 -61q2 -1 1 -2q0 -2 -2 -2q-13 2 -34 -13q-26 27 -41 59q-21 -29 -76 -68q-2 -1 -3 0t0 3q47 33 72 82q-17 45 -18 95h3zM65 100l-1 -45l32 11v35z
M66 186v-39l30 1v38h-30zM65 141v-36l31 2v35z" />
    <glyph glyph-name="uni53EF" unicode="&#x53ef;" 
d="M124 156l20 -13v-3l-6 -7v-62l2 -3q0 -2 -1 -2q-16 2 -66 -1v-6q-1 -18 -13 -30q-3 -2 -4 -1q-1 0 -1 2v95q0 5 -1 18v8q0 3 2 2l17 -10l41 2zM55 180q-12 -1 -25 -3q1 1 -2 0l-8 8l183 4l16 17l21 -19q2 -2 0 -2l-61 -2l21 -8l1 -1q1 0 0 -2l-4 -9v-94l2 -48
q-1 -35 -40 -51q-3 -1 -2 2q1 17 -9 25q-1 1 -1 2q1 1 3 1q25 -3 23 8v126l-2 49zM114 140l-41 -2v-68l42 2z" />
    <glyph glyph-name="uni53F2" unicode="&#x53f2;" 
d="M109 212q0 3 2 2l27 -11q2 -1 2 -2q0 -2 -2 -3l-5 -7v-23l38 1l12 14l25 -15q2 -1 0 -3l-7 -10l1 -49l2 -3q1 -2 -1 -2h-71q-5 -35 -21 -61q30 -20 116 -37q2 0 2 -2q0 -1 -2 -1q-19 0 -40 -27q-57 20 -86 54q-30 -35 -96 -58q-2 0 -3 1q0 1 1 2q69 28 88 67
q-12 15 -26 38l2 1q15 -17 30 -29q9 25 12 52q-20 -1 -38 -1q-2 -10 -15 -21q-7 -3 -7 1l1 66q0 7 -1 22v10q0 3 2 1l21 -12l39 1v8q0 19 -2 36zM172 163h-39v-35q0 -12 -1 -22l42 2zM72 106v-1l38 1v12q1 8 1 13v31l-39 -1v-55z" />
    <glyph glyph-name="uni53F3" unicode="&#x53f3;" 
d="M119 213l25 -16q2 -1 0 -4q-9 -18 -19 -36l77 1l17 16l20 -19q1 -2 -2 -3l-116 -1q-16 -29 -39 -53l12 -7l80 2l13 15l23 -16q2 0 0 -3l-6 -8l1 -71l3 -8q2 -2 -4 -2q-54 3 -109 1q-5 -14 -18 -27q-5 0 -5 3l-1 89v18q-25 -29 -62 -62q-1 -1 -3 -1q-1 1 0 3q53 53 88 126
h-43q-20 -1 -29 -3l-9 9l84 1q11 27 19 53q0 5 3 3zM93 85l1 -78l82 1l-1 79z" />
    <glyph glyph-name="uni53F7" unicode="&#x53f7;" 
d="M164 198l9 14l26 -12q3 -1 1 -3l-6 -10l-2 -38l2 -4q2 -3 -2 -2h-13q-24 1 -44 0l-47 -1l-1 -3q-11 -18 -20 -13l2 80q0 2 1 2q0 1 2 0l19 -12zM49 107q-22 -1 -30 -4l-7 9l199 5l14 16l20 -17q3 -3 -1 -4l-146 -3l17 -9l-5 -8l-8 -25l75 3l10 13l25 -13q2 -1 0 -3l-7 -9
q-8 -40 -22 -61q-12 -16 -40 -28q-4 -1 -3 4q0 16 -13 21q-1 0 -1 1q1 2 2 2q18 -3 23 1q20 11 27 66l-78 -2v-1q-11 -12 -22 -15q-6 1 -5 4l13 42l3 16zM88 190v-42l76 2l1 42z" />
    <glyph glyph-name="uni540D" unicode="&#x540d;" 
d="M131 202q2 -1 -1 -4l-6 -5q-1 -2 -4 -5q-3 -4 -5 -6l66 3l14 12l24 -18q2 -2 0 -3l-12 -8q-23 -24 -50 -45q5 -3 12 -9q2 -1 3 -2q5 -6 -7 -24q-6 -8 -11 1q-4 6 -14 19l-1 1q-21 -16 -45 -30l10 -5l81 2l12 15l25 -13q2 -1 0 -3l-6 -10l1 -58l2 -6q1 -1 0 -2t-3 0
q-39 1 -112 1v-5q-5 -16 -20 -25q-3 0 -3 3v47v51q-19 -11 -60 -32q-10 -5 -15 -8q-3 -1 -4 1q-1 1 1 3q64 33 123 88q-12 11 -29 23q-2 2 -1 3q0 1 2 0l9 -3q19 -8 30 -13q24 23 42 46l-69 -3q-33 -35 -77 -67q-2 -1 -3 0t0 3q46 44 73 104zM103 69v-63h83v64z" />
    <glyph glyph-name="uni540E" unicode="&#x540e;" 
d="M184 82l11 14l23 -14q1 -1 1 -3l-6 -8l1 -57l2 -7q1 -3 0 -3q0 -1 -3 -1q-31 3 -84 3h-11v-7q-3 -15 -19 -24q-3 0 -4 3l1 42v38l-1 33q1 4 4 2l19 -13zM66 195l23 -14l-3 -5v-44l119 1l15 17l19 -18q2 -3 -1 -4l-152 -2q0 -58 -17 -87q-14 -29 -65 -61q-2 -1 -3 0
q0 2 1 3q40 29 50 57q12 29 12 96v30q0 26 -1 29q0 3 3 2zM118 75v-62l67 1v63zM209 190q1 -3 -2 -4q-59 -5 -112 -7l-1 2q66 15 93 31z" />
    <glyph glyph-name="uni5411" unicode="&#x5411;" 
d="M125 216l15 -19q1 -1 -2 -3q-17 -9 -66 -28q-3 0 -1 2q37 25 54 48zM201 178l25 -13q2 -1 0 -3l-7 -10l1 -90l1 -45q0 -30 -34 -45q-2 -1 -2 2q1 17 -12 22q-1 1 -1 2t1 1q22 -1 21 3l-2 157l-130 -2l1 -149q-2 -17 -17 -33q-2 -3 -4 -2t-2 4l1 74l1 86l-1 36q0 2 3 1
l20 -12l127 3zM104 113l-1 -55l44 1l-1 55zM146 120l9 13l22 -13q2 -1 0 -3l-6 -9l1 -50l2 -4q1 -3 -2 -3q-22 2 -69 0q-2 -14 -14 -26q-4 -3 -5 1l1 48v35v21q0 2 1 0l18 -11z" />
    <glyph glyph-name="uni5413" unicode="&#x5413;" 
d="M78 193l23 -14q2 0 0 -2l-7 -11l1 -96l2 -2q0 -3 -1 -3h-55v-14q-1 -19 -13 -36q-6 -3 -7 2l2 60v88q0 22 -1 26q0 1 1 2l2 -1l18 -13l25 1zM137 188q-10 0 -24 -2q-4 -1 -5 -1l-8 8l113 3l13 16l20 -18q2 -2 0 -2l-88 -3l16 -6q3 -1 2 -6v-20v-103l1 -41q-2 -22 -18 -40
q-5 -2 -7 4l1 74v98q0 24 -1 40zM42 174l-1 -103l29 1l-1 103zM187 129q50 -15 52 -25q2 -13 -11 -24q-6 -4 -11 4q-15 32 -31 42q-1 1 -1 2q1 2 2 1z" />
    <glyph glyph-name="uni5426" unicode="&#x5426;" 
d="M202 -2q-39 2 -118 1v-9q-9 -17 -21 -12l-1 96q0 2 1 2q0 1 2 0l19 -11l88 2l12 14l23 -14q2 -1 0 -3l-5 -8v-49l3 -7q2 -2 -3 -2zM68 186q-18 -1 -27 -3l-9 8l163 3l14 15l19 -17q1 -2 -1 -3l-90 -2l17 -13q3 -3 -1 -4q-3 -3 -11 -9q-4 -3 -6 -5l1 -58q-1 -15 -19 -29
q-4 0 -5 5l2 46v18q-59 -43 -98 -64q-1 -1 -2 0q-1 2 0 3q54 32 98 85q0 2 -1 5q0 3 -1 5q0 3 3 2l5 -4q7 9 13 17zM84 59v-56l90 2l-1 57zM156 143q45 -9 64 -22q7 -6 -2 -25q-6 -7 -11 -1q-19 27 -51 47q-2 1 0 1z" />
    <glyph glyph-name="uni5458" unicode="&#x5458;" 
d="M135 154l-42 -1q-12 -17 -20 -12l1 67q0 1 1 2l2 -1l18 -11l68 1l8 13l24 -12q3 -1 1 -3l-6 -8v-29l2 -4q1 -2 -2 -2h-13q-23 1 -42 0zM81 125v-70q-3 -18 -16 -28q-4 -3 -6 2l1 44v43v23q0 3 2 1l18 -9l101 1l10 12l21 -12q2 0 2 -1l-2 -2l-5 -8v-33l1 -25
q-1 -15 -17 -29q-7 -5 -8 1v92zM148 100q2 0 0 -2l-3 -5q-1 -58 -29 -82q-23 -24 -104 -43q-2 0 -3 2q0 1 2 2q68 21 87 44q22 24 23 83l-1 13zM93 193v-34l70 2v33zM143 36q67 -21 75 -31q5 -11 -5 -23q-6 -8 -14 3q-20 27 -57 49q-1 1 1 2z" />
    <glyph glyph-name="uni5462" unicode="&#x5462;" 
d="M105 204q0 2 2 1l23 -10l65 1l11 13l21 -12q2 -1 0 -4l-6 -7v-43l2 -3q1 -2 -2 -2h-21q-15 1 -23 1l-51 -1v-10q0 -64 -18 -94q-16 -31 -71 -65q-2 0 -2 2q-1 1 1 2q41 30 56 65q16 33 15 96l-1 39zM69 202l21 -11q2 -1 0 -2l-5 -9l-1 -94l2 -3q1 0 -1 -1q-10 0 -39 -2
q4 1 -8 0v-18q0 -15 -13 -27q-4 -3 -5 1l1 47l1 89q0 5 -1 16v9q0 3 2 1l16 -9l22 2zM141 125l25 -11q2 -1 0 -3l-5 -6l-5 -82q-3 -20 16 -19q20 0 42 3q13 1 19 25q0 2 2 1q2 0 2 -2q-2 -17 4 -22q13 -12 -4 -20q-27 -11 -65 -6q-33 2 -32 44l2 61q0 27 -1 37zM126 188v-45
l72 1v46h-71zM39 185l-1 -100l24 2v99zM215 102l15 -15q2 -4 -2 -5q-31 -8 -66 -17l-1 2q36 16 54 35z" />
    <glyph glyph-name="uni548C" unicode="&#x548c;" 
d="M209 184l24 -14q2 0 0 -2l-7 -11l1 -111l2 -2q0 -2 -1 -2q-28 0 -61 -2v-9q-1 -19 -15 -34q-6 -3 -6 1l1 58v100q0 22 -1 27q0 2 3 1l18 -13l32 1zM112 216l15 -17q1 -1 1 -2t-2 -1q-10 -2 -40 -6l14 -5q2 -1 0 -2l-4 -8l-1 -35h19l14 13l14 -15l2 -2q-1 -1 -2 -1l-47 -1
v-28q33 -12 36 -20q1 -10 -9 -19q-9 -5 -10 3q-5 18 -17 31l-1 -58l1 -43q-3 -12 -17 -27q-6 -4 -7 1l1 71l1 40q-24 -31 -68 -72q-3 -2 -2 2q40 47 71 119l-17 -1q-15 0 -28 -2l-7 7l52 1v19v30q-5 -1 -15 -2q-20 -3 -30 -4q-3 0 -1 3q69 19 84 31zM167 165v-119l35 1
l-1 119z" />
    <glyph glyph-name="uni54A6" unicode="&#x54a6;" 
d="M145 214l26 -11q3 -1 1 -4l-3 -8v-12l40 1l12 14l17 -15q1 -2 -1 -3l-68 -2v-23h30l9 12l19 -11q3 -1 1 -3l-6 -8l1 -20l3 -6q1 -2 -1 -2h-16q-13 1 -19 1l-22 -1q0 -13 -2 -27l43 1l9 12l21 -12q2 -1 0 -4l-5 -7l-1 -19q-2 -18 -29 -33q-2 0 -2 2q2 12 -6 18q-1 1 0 2
q13 0 12 4l1 32l-42 -1q7 -52 82 -93q3 -2 -1 -4q-19 2 -35 -12q-42 38 -49 107q-9 -71 -114 -111q-2 0 -2 2q-1 1 1 2q82 34 94 108h-28q-2 -8 -11 -16q-6 -4 -7 2l3 38v22q0 2 2 1l16 -9l29 1v7v18l-45 -1q-3 0 -3 3t3 3l45 1v23h-19q-16 -1 -28 -3l-8 7l55 1q0 18 -2 36z
M72 186l20 -12v-2l-6 -7l-1 -97l2 -3l-1 -1q-4 1 -42 -2v-15q0 -15 -13 -28q-4 -2 -5 1l1 48v88q0 22 -1 26q0 2 3 1l16 -9l19 1zM44 169v-102l19 1l1 102zM144 86q3 12 3 27l-30 -1l-1 -27zM199 146l-30 -1l-1 -23v-3h31v27z" />
    <glyph glyph-name="uni54D1" unicode="&#x54d1;" 
d="M92 -14q-15 -1 -28 -3l-8 9h71v150v41q-18 0 -28 -3l-9 9l114 1l13 14l18 -16l1 -2q-1 -1 -2 -1l-64 -1l19 -8q3 -1 1 -4l-4 -9l-1 -116q20 53 30 103l27 -17q3 -1 1 -3l-7 -5q-3 -6 -10 -19q-26 -50 -41 -74l-1 -39h30l16 15l21 -17q2 -2 -1 -3zM68 192l20 -12
q2 -1 0 -2l-6 -8l-1 -97l2 -3q1 -1 -1 -2q-7 1 -24 0h-21v-16q-1 -16 -12 -27q-6 -2 -7 1l2 47v91v25q0 3 2 1l17 -11l20 1zM148 165l-2 -172h17l2 149l-1 42l-29 -1l16 -6q3 -1 0 -4zM38 175l-1 -102l23 1l1 101h-23zM92 140q26 -51 30 -80q-3 -12 -18 -18q-6 -2 -6 4
q2 47 -8 93q0 2 2 1z" />
    <glyph glyph-name="uni54E6" unicode="&#x54e6;" 
d="M163 211q-1 2 1 1l24 -10l2 -1l-2 -2l-4 -6q-2 -33 -1 -61l28 1l14 15l17 -17q2 -1 -1 -3l-58 -2q1 -36 7 -61q14 25 22 46q0 3 3 2l17 -14q3 -1 -1 -5q-19 -25 -37 -45q10 -32 32 -44q5 -4 8 0l12 13q1 1 3 1q1 0 0 -2q-9 -17 -7 -29q1 -10 -3 -14q-5 -3 -13 3
q-33 21 -47 57q-20 -21 -42 -37q-3 0 -2 3q25 20 41 44q-9 28 -12 81l-29 -1l-1 -41l28 8q4 1 1 -2l-29 -17l-1 -59q0 -26 -25 -40q-2 -1 -3 0v2q1 11 -8 19q-1 1 -1 2t2 1q18 -2 16 9l1 54q-18 -11 -24 -16q-2 -2 -2 -1q0 -1 -1 1l-10 24q2 0 6 1q6 2 21 6l10 3v45
q-8 0 -19 -2q-2 -1 -3 -1l-11 9l34 1v1q0 8 -1 23v19q0 3 2 2l21 -10q1 0 2 -1l-1 -2l-4 -7v-24l29 1v17q-1 12 -1 19v14q-1 19 0 29zM64 192l19 -12q2 -2 0 -2l-5 -7l-1 -96l1 -3q1 -1 0 -1q-5 0 -13 -1q-14 0 -29 -1v-15q0 -13 -12 -27q-5 -3 -6 1l1 47v89v26q0 2 2 0
l16 -10l18 1zM36 175v-101l19 1v101zM143 211l14 -15q0 -3 -2 -3q-23 -6 -64 -16q-2 0 0 2q29 15 50 32q1 2 2 0zM195 192q31 -11 31 -22q-1 -10 -12 -16q-9 -2 -10 4q0 22 -11 32q-1 3 2 2z" />
    <glyph glyph-name="uni559C" unicode="&#x559c;" 
d="M48 55q-18 -1 -27 -4l-7 8l75 1q0 13 -3 30v2q1 1 3 0l19 -9q3 -1 2 -4v-18h35q10 22 11 37q-35 1 -76 1q-2 -5 -12 -13q-4 -2 -5 -2t-1 3v24v12v18l20 -8l90 1l9 10l21 -12q2 0 0 -2l-4 -7v-21l2 -3q0 -1 -1 -1h-37l19 -9q1 0 2 -1l-2 -2l-20 -25l52 1l14 15l19 -17
q1 -1 -1 -3zM170 36l11 14l26 -15q2 0 0 -3l-6 -7l1 -24l2 -2q0 -3 -2 -3q-15 1 -40 1h-29h-49q-3 -15 -16 -25q-4 -3 -6 1l1 27v26l-1 21l23 -12zM53 177q-14 -1 -27 -3l-7 8l96 1v3l-1 29l32 -13l-5 -7v-11l64 1l13 13l18 -16q2 -2 0 -2l-95 -2l-1 -23l40 1l11 11l16 -13
q3 -2 -1 -2l-122 -2q-18 -1 -27 -3l-7 7l65 1v23zM85 30l-1 -30l87 1l-1 30zM82 128v-24h90v25z" />
    <glyph glyph-name="uni55E8" unicode="&#x55e8;" 
d="M116 85l14 1l3 46l1 27l20 -12l38 1l10 10l18 -13q2 -1 0 -3l-6 -7l-2 -47h6l12 14l16 -15l2 -2q-1 -1 -2 -1l-34 -1l-2 -63h6l11 13l15 -14q2 -3 -1 -3l-31 -1q-1 -31 -27 -46q-3 -1 -3 2q-1 11 -8 16q-1 0 -1 1q0 2 1 2q17 0 17 14l1 11l-47 -2q-6 -9 -15 -13
q-2 -2 -4 -1q-1 0 -1 1l3 34l4 46h-14q-3 0 -4 3q1 2 4 2zM59 195l19 -12q2 -1 0 -3l-5 -7l-1 -104l1 -3q1 -1 0 -1q-5 0 -11 -1q-12 0 -29 -1v-8q-1 -14 -11 -29q-5 -3 -6 1l1 48l1 90q0 5 -1 17v8q0 3 2 1l15 -9l17 2zM147 81l-4 -62l47 1l1 62zM151 141l-4 -55l44 1l2 56
zM33 177v-109l19 1v110zM118 137l-21 -108q-1 -13 3 -29q3 -4 -1 -9q-6 -7 -16 -8q-6 -1 -5 6q0 3 1 7q1 11 1 20q0 10 -10 14q-1 2 0 3q11 -2 13 6l32 98l2 2q1 -1 1 -2zM154 215l18 -15q2 -1 0 -3q1 0 0 -1l-6 -5l-12 -11l52 1l13 15l18 -17q2 -1 -1 -3l-87 -1
q-24 -24 -46 -42q-3 -1 -2 2q36 41 50 79q2 3 3 1zM85 199q30 -6 31 -17t-7 -16q-7 -3 -10 3q-6 19 -16 28v1q-1 2 2 1zM158 70q26 -12 25 -22q0 -8 -11 -14q-6 -1 -7 4q-5 22 -9 31q-1 2 2 1zM76 140q23 -11 23 -23q-1 -9 -9 -12q-7 -1 -8 6q-1 17 -8 27q0 2 2 2zM159 132
q23 -12 23 -20q-2 -10 -12 -12q-5 -2 -5 4q-2 19 -8 26q-1 3 2 2z" />
    <glyph glyph-name="uni56DE" unicode="&#x56de;" 
d="M204 204l22 -12q3 -1 1 -4l-7 -10l1 -100l2 -52q1 -26 -21 -45q-4 -3 -6 -2q-3 0 -2 4q-2 16 -5 25l-132 -1q-1 -13 -15 -28q-6 -5 -7 1l2 177q1 27 -1 44q0 1 2 1l22 -15l134 1zM58 180l-1 -166l139 1l-1 166zM168 61q-28 4 -64 2v-1q-4 -17 -15 -24q-3 0 -4 3l1 108
q0 3 3 2l15 -11l36 1l11 13l22 -13q2 -1 0 -3l-5 -8v-58l2 -7q1 -3 0 -3q0 -1 -2 -1zM104 134v-65l38 1l-1 65z" />
    <glyph glyph-name="uni5728" unicode="&#x5728;" 
d="M115 213l24 -15q2 -2 0 -4q-7 -16 -18 -32l85 1l16 16l19 -18q1 -1 1 -2t-2 -1l-122 -2q-18 -27 -37 -53l3 -2q3 -1 3 -6l-1 -98q-2 -14 -14 -26q-5 -5 -7 0l2 57v58q-29 -35 -59 -62q-2 -1 -3 -1q-1 1 0 3q45 47 86 130l-39 -1q-18 0 -28 -2l-7 8l76 1q14 28 19 49
q2 3 3 2zM109 72q-3 0 -3 3q-1 3 2 3l41 2v16l-2 44l29 -8q1 0 2 -1l-2 -2q-3 -3 -4 -10l-1 -39l20 1l13 14l16 -16q2 -2 0 -3l-49 -2v-77l39 1l15 13l16 -15q2 -2 0 -2l-116 -3q-14 -1 -27 -3l-8 8l59 1v77z" />
    <glyph glyph-name="uni590D" unicode="&#x590d;" 
d="M99 216l23 -14q2 -1 -1 -3l-5 -5q-2 -2 -6 -7q-5 -5 -7 -8l81 2l12 14l18 -15q2 -1 0 -2l-116 -3q-9 -10 -20 -19q1 0 1 -1l15 -5v-1l70 3l7 10l24 -11q2 0 0 -3l-5 -6v-34q0 -12 -13 -24q-5 -6 -8 -1q-5 6 -8 12l-68 -1q0 -6 -10 -12q-3 -3 -5 1v53q0 14 -1 18v1
q-20 -19 -41 -34q-4 -1 -2 2q35 32 65 93zM113 74q0 -1 -1 -3l-1 -1q0 -1 -3 -3l55 2l13 10l21 -14q2 -2 0 -3l-10 -6q-16 -17 -45 -36q40 -20 106 -28q1 0 2 -2q-1 -1 -2 -1q-18 -1 -36 -20q-56 15 -86 42q-37 -19 -108 -43q-4 -1 -5 0q0 1 3 4q61 23 99 51q-12 15 -18 32
q-22 -21 -55 -44q-3 -1 -2 2q36 34 54 75zM165 147l-72 -2v-20l62 2q3 1 3 -2q0 -2 -3 -2l-62 -3l1 -22l71 2v47zM162 64l-59 -2l-3 -4q11 -17 26 -27q20 15 36 33z" />
    <glyph glyph-name="uni5927" unicode="&#x5927;" 
d="M62 112q-18 0 -28 -2l-8 8l87 2q3 37 1 91l29 -7l2 -1q0 -1 -2 -2l-6 -7q0 -42 -3 -74l66 2l16 16l18 -19q2 -3 -1 -3l-89 -2q11 -86 98 -121q2 -1 2 -2q-1 -2 -3 -2q-19 -1 -32 -16q-65 31 -71 141h-4q2 -112 -129 -142q-2 -1 -2 0q0 2 1 3q107 32 109 138z" />
    <glyph glyph-name="uni5982" unicode="&#x5982;" 
d="M205 177l24 -14q2 0 0 -2l-6 -9l1 -113l1 -3q1 0 0 -1q-22 0 -61 -1v-20q-1 -15 -15 -28q-5 -4 -6 1l1 55l1 108q0 5 -1 18v8q0 1 2 1l19 -14l31 1zM110 164l21 -11q3 -1 1 -3l-7 -8q-6 -60 -28 -95q24 -13 32 -21q5 -15 -6 -26q-6 -4 -10 1q-9 18 -25 32
q-21 -30 -81 -65q-3 0 -2 3q54 36 72 71q-17 14 -34 20l12 83h-4q-4 0 -12 -1t-13 -2l-7 8h36l4 27q3 26 3 35l26 -9q2 0 0 -3l-4 -5l-10 -44l27 1zM164 159v-120l36 1l-2 119h-34zM56 64q3 -1 11 -4l15 -6q16 38 20 92l-29 -1z" />
    <glyph glyph-name="uni5B50" unicode="&#x5b50;" 
d="M116 146l15 -5l43 45l-97 -4q-22 0 -31 -4l-10 9l141 5l14 13l24 -23q3 -4 -3 -6q-25 -6 -76 -37l10 -4q2 -2 0 -3q-3 -6 -4 -9l1 -28l62 2l20 19l22 -21q2 -2 0 -3l-104 -2v-37v-36q1 -28 -36 -46q-4 -2 -5 3q1 16 -12 26q-2 0 -1 1q0 1 2 1q28 -3 26 8l-1 79l-70 -1
q-15 -1 -28 -3l-7 8l105 2q-1 34 -1 49q-1 3 1 2z" />
    <glyph glyph-name="uni5B57" unicode="&#x5b57;" 
d="M118 110l16 -7l25 34l-61 -2q-18 -1 -27 -4l-9 9l100 3l11 10l21 -19q1 -1 1 -2q-1 -1 -3 -1q-13 -2 -54 -29l7 -3q2 -1 0 -3q-3 -3 -4 -8v-16l59 1l17 17l19 -19q2 -3 -1 -3l-94 -3v-22l1 -30q0 -26 -34 -42q-2 -1 -3 -1q-1 1 -1 4q2 14 -12 21q-2 3 1 4q28 -3 25 7
l-1 55v4l-57 -2q-18 -1 -27 -3l-9 9l93 2q-1 25 -1 38q0 2 2 1zM31 119q-10 0 -11 18q23 15 28 46q1 2 2 3q1 0 2 -2q0 -2 1 -6v-4l64 1l-1 36q0 3 2 2l26 -8q1 0 2 -1l-1 -2q-3 -3 -3 -12v-14l61 1l13 11l24 -22q2 -4 -2 -5q-17 -3 -36 -13q-2 -1 -3 0t0 2l7 22l-153 -4
q1 -35 -22 -49z" />
    <glyph glyph-name="uni5B9A" unicode="&#x5b9a;" 
d="M88 118q-16 -1 -28 -3l-7 7l122 5l15 15l18 -17q3 -2 -1 -2l-68 -3l-2 -114q34 -3 112 6q2 1 2 -1q1 -2 -1 -3q-18 -3 -27 -27q-23 -1 -54 0q-32 2 -45 5q-28 5 -50 53q-8 -35 -65 -72q-3 0 -2 3q54 32 56 117l20 -9q2 0 0 -4l-2 -4q-2 -14 -5 -26q16 -28 40 -35v110z
M36 122q-11 -1 -11 19q22 13 26 42q0 2 2 2q1 0 2 -2q0 -5 1 -10l58 2l-1 35q0 3 2 2l28 -8q3 0 1 -4q-4 -3 -4 -11v-13l60 2l12 11l26 -22q3 -3 -2 -5q-21 -5 -39 -15q-2 -1 -3 0t0 2l7 24l-145 -6q1 -31 -20 -45zM200 95l10 -18l1 -2q-1 -1 -2 -1q-12 -2 -40 -6
q-13 -2 -20 -3q-3 1 -1 3q32 11 52 27z" />
    <glyph glyph-name="uni5BC6" unicode="&#x5bc6;" 
d="M165 176l21 -13q2 -1 -1 -3l-6 -5q-32 -39 -71 -63h2q21 -6 48 -1q9 2 9 9v22q0 2 1 3q1 0 2 -2q11 -23 25 -27q7 -3 7 -9q0 -5 -8 -9q-42 -16 -93 -4q-6 3 -11 7q-24 -13 -80 -36q-2 -1 -3 1q0 1 2 2q49 25 74 42q-3 6 -3 12q-2 20 1 48q0 1 1 2l2 -1l19 -8q2 -1 0 -4
l-3 -4q-3 -13 -2 -32v-2q41 31 67 75zM185 58l29 -12q3 0 0 -4l-4 -6v-26q0 -19 -18 -32q-4 -3 -6 1q-4 15 -8 21l-105 -1v-2q-2 -11 -13 -21q-6 -5 -7 0v52l-1 25q0 3 1 3l3 -1l20 -7q1 -1 1 -3l-3 -7l-1 -36l44 1v34l-1 31l30 -9q2 -1 0 -3q-3 -3 -5 -10l-1 -42l45 1l1 33
zM205 185l11 10l24 -19q4 -5 -2 -6q-16 -1 -33 -12q-3 -1 -3 2l4 20l-150 -5q-8 -27 -30 -40q-4 -2 -6 1q-3 13 1 17q17 12 19 33q-1 2 1 3q1 0 4 -1q1 -1 3 -2l7 -7l60 3l1 33l29 -7q2 -1 0 -4l-3 -6l-1 -15zM62 140q0 1 2 2q1 -1 1 -2q7 -28 -3 -44q-4 -8 -18 -7
q-9 3 -2 14q18 17 20 37zM217 119q0 -12 -7 -17t-10 2q-7 26 -22 36q-2 2 1 2q38 -9 38 -23zM112 172q20 -7 24 -16q3 -8 -9 -18q-4 -3 -6 1q-5 10 -10 28q-1 3 -1 4q0 2 2 1z" />
    <glyph glyph-name="uni5BF9" unicode="&#x5bf9;" 
d="M125 40q-3 -10 -14 -21q-6 -2 -8 4q-9 22 -23 43q-29 -45 -75 -87q-2 -1 -2 0q-1 2 0 4q44 47 65 101q-8 12 -24 34q-10 12 -13 17q-2 3 2 2q13 -11 42 -36q12 37 16 60l-58 -3q-3 0 -4 3t2 4l60 3l12 15l23 -16q2 -1 0 -4l-9 -10q-11 -37 -26 -66q20 -20 32 -35
q5 -6 2 -12zM158 141q-18 0 -28 -3l-8 8l61 1l1 32l-1 33l30 -13l2 -1l-2 -2l-5 -9l-1 -39h13l13 14l16 -16q2 -1 0 -2l-42 -1l-1 -86v-39q-2 -28 -34 -46q-2 -1 -3 0t0 2q1 16 -12 23q-1 1 -1 2t1 1q28 -2 25 12l1 130zM129 114q36 -15 42 -26q2 -9 -8 -21q-8 -4 -10 3
q-8 28 -25 42q-2 2 1 2z" />
    <glyph glyph-name="uni5C06" unicode="&#x5c06;" 
d="M72 212l24 -11q1 -1 1 -3l-5 -8l-2 -130l2 -60q-5 -17 -18 -30q-2 -2 -4 -2t-2 3l1 74l1 56q-24 -27 -42 -53q-5 -7 -11 -6q-5 2 -3 9q7 17 4 26q7 -8 52 32v67q1 11 0 28v7q0 3 2 1zM133 153q-1 2 2 2q23 -7 29 -14q0 -4 -1 -6q16 18 31 42l-48 -2q-18 -24 -43 -49
q-1 -1 -2 0t0 3q27 33 40 83q0 3 2 2l21 -14q2 -1 0 -3q-1 -1 -2 -3q-4 -5 -11 -14l43 1l11 11l20 -13q2 -3 -1 -5l-8 -7q-36 -50 -122 -94q-1 -1 -2 1q0 1 1 2q36 24 58 46q-1 1 -3 4q-6 15 -15 27zM108 77l70 2v8q-1 20 -1 29l27 -8q3 0 1 -2t-3 -5l-1 -2v-19h9l14 15
l18 -17q2 -1 -1 -3l-40 -1l1 -30l1 -36q-2 -23 -32 -37q-3 -1 -2 2q0 16 -9 19q-1 1 -1 2t1 1q20 1 18 5v73l-70 -1q-3 0 -3 3q0 2 3 2zM124 68q3 -2 7 -4q28 -16 26 -24q-2 -11 -14 -17q-9 -2 -10 6q-1 26 -10 37q-1 2 1 2zM25 164q29 -9 30 -20q0 -11 -9 -16q-6 -4 -9 3
q-1 21 -12 32q-2 2 0 1z" />
    <glyph glyph-name="uni5E8F" unicode="&#x5e8f;" 
d="M66 193q0 2 2 1l24 -11l49 1l2 31l30 -6q1 0 2 -1l-1 -2q-6 -5 -7 -21h43l13 15l19 -16q2 -3 -1 -4l-152 -3v-57q0 -3 -1 -10q0 -7 -1 -11l78 3q-14 20 -33 34q-2 2 2 3q1 0 5 -1q17 -5 26 -9l21 28l-79 -2q-3 0 -3 2q1 3 3 3l81 3l10 10l20 -14q2 -1 0 -3l-9 -4l-39 -25
q2 0 4 -1q3 -1 4 -2q4 -1 1 -9q-1 -6 -6 -13l38 2l11 10l23 -21q3 -4 -2 -6q-15 -1 -32 -10q-3 -1 -3 3l4 18l-54 -2l17 -5q2 -1 0 -3q-3 -3 -3 -7v-42l1 -29q0 -25 -31 -40q-3 -1 -3 2q0 14 -11 18q-2 2 0 4q21 -2 21 7v66q0 5 -1 15q0 10 -1 14l-27 -1q-18 -1 -27 -4l-6 6
q0 -61 -83 -118q-2 -1 -2 1q-1 2 1 3q38 30 52 63q14 30 13 87v29z" />
    <glyph glyph-name="uni5F00" unicode="&#x5f00;" 
d="M67 183q-22 -2 -27 -4l-10 9l164 2l15 15l18 -17q2 -3 -1 -3l-68 -1l21 -7q2 -1 0 -3l-5 -7v-69l33 1l17 18l19 -21q1 -1 1 -2t-2 -1l-68 -1v-62v-28q-3 -17 -23 -29q-3 0 -4 4l1 41v74l-38 -1q0 -79 -100 -124q-2 -1 -2 1q-1 2 1 3q78 41 78 120l-36 -1q-18 -1 -27 -3
l-9 9l72 1v7l1 46q0 6 -1 17q0 11 -1 16h-19zM110 103v-5h38l1 86l-55 -1l20 -7q2 0 0 -3l-4 -6v-64z" />
    <glyph glyph-name="uni5F97" unicode="&#x5f97;" 
d="M141 136q-2 -6 -11 -15q-2 -2 -4 -1q-1 0 -1 2l1 30v33q0 5 -1 14v7q0 3 2 2l15 -8l53 2l9 11l19 -11q2 0 1 -3l-4 -7v-40q1 -11 -11 -23q-5 -6 -8 -1q-5 7 -8 11zM144 103q-18 0 -28 -2l-7 6l103 2l10 11l15 -13q2 -2 0 -2l-35 -1l-1 -33l20 1l12 13l16 -16q2 -2 0 -2
l-48 -1l-1 -59q-1 -22 -26 -35q-3 0 -4 1q0 14 -8 18q-3 2 0 4q18 -2 16 5l1 65h-43q-3 0 -9 -1q-13 0 -18 -2l-8 7l78 2l1 33zM4 41q-3 -1 -2 2q53 43 86 115l21 -16q2 -2 -1 -4l-3 -3q-10 -13 -19 -23l2 -113q-3 -16 -14 -30q-6 -3 -6 2l1 66l1 57q-26 -25 -66 -53z
M197 197l-56 -2v-23l46 2q2 0 2 -2t-2 -3l-46 -2l1 -25l54 2zM89 212l16 -15q2 -2 2 -3t-3 -3q-26 -20 -77 -45q-3 -1 -1 2q42 28 63 64zM126 55q1 0 2 -2q27 -16 24 -24q-1 -10 -13 -13q-7 -1 -8 6q0 19 -7 31q-1 3 2 2z" />
    <glyph glyph-name="uni6025" unicode="&#x6025;" 
d="M103 216l24 -14q1 -1 -1 -3l-6 -5q-5 -6 -10 -11l39 1l12 12l22 -13q2 -2 -1 -4l-8 -5l-42 -34l46 1l10 14l22 -12q2 -1 0 -3l-6 -9v-60l2 -5q1 -2 -1 -3q-10 1 -46 1l-108 -2q-3 0 -3 3t3 3l127 2v33l-107 -2q-3 0 -3 2q0 3 2 4l108 2v27l-112 -3q-2 0 -2 3q0 2 2 2
l60 2l22 38l-44 -1q-31 -30 -67 -57q-3 -1 -2 2q37 34 68 94zM82 52l18 -7q2 -1 -1 -4l-2 -3q-5 -14 -3 -30q0 -7 12 -9q27 -5 54 1q8 1 8 6l1 21q0 2 1 2q2 1 3 -1q1 -1 2 -4q7 -18 22 -23q8 -2 8 -7q-1 -5 -9 -9q-17 -7 -45 -9q-31 -1 -52 5q-18 8 -20 25q-2 18 1 45
q0 3 2 1zM191 40q41 -8 46 -20q2 -10 -9 -20q-8 -1 -11 4q-12 21 -27 33q-2 1 -1 2q0 1 2 1zM46 36q1 4 4 1q14 -30 8 -41q-5 -8 -20 -10q-6 0 -7 3t3 8q12 15 12 39zM124 53q27 -11 26 -20q0 -10 -10 -14q-9 -2 -9 4q-1 16 -10 28q1 3 3 2z" />
    <glyph glyph-name="uni6062" unicode="&#x6062;" 
d="M84 -34q-2 -1 -3 -1q-1 1 0 3q42 35 57 74q16 36 15 103l27 -12q2 -1 0 -3l-3 -2q3 -84 64 -139q2 -1 1 -2q0 -2 -2 -1q-13 0 -29 -9q-38 40 -36 150l-2 -1q4 -98 -89 -160zM54 210q0 2 1 3q1 0 2 -1l17 -7q1 -1 1 -3l-2 -6l-4 -150l1 -45q-2 -18 -15 -31q-3 -2 -4 -1
q-2 1 -2 4l3 77l3 128zM135 213l26 -9q2 -2 0 -4l-3 -5q-5 -12 -11 -26l61 1l15 15l16 -17q2 -1 -1 -3l-93 -2q-29 -65 -63 -115q-1 -1 -3 -1q-1 1 0 3q26 41 45 113h-4q-16 -1 -28 -3l-8 8l42 1q0 2 1 6q7 28 8 38zM41 150q1 2 3 0q3 -33 -6 -52q-8 -14 -26 -13q-7 9 0 15
q23 11 29 50zM122 110q0 2 1 2t2 -2q9 -34 4 -49q-7 -12 -20 -12q-10 2 -1 14q15 19 14 47zM220 121l20 -11q3 -2 0 -4q-19 -11 -47 -34q-5 -1 -2 2q20 27 29 47zM79 148q17 -9 20 -17q-1 -5 -9 -12q-4 -3 -6 1q-5 13 -8 26v2q1 1 3 0z" />
    <glyph glyph-name="uni606F" unicode="&#x606f;" 
d="M179 189l23 -13q2 0 0 -3l-6 -8l2 -73q1 -22 -20 -41q-4 -2 -5 -1q-2 1 -2 5q-1 9 -4 15l-83 -1q-3 -9 -14 -21q-3 -2 -5 -2q-2 1 -2 4l1 92q0 34 -1 45q0 2 1 2l21 -11v-5l85 2zM84 168v-27l75 1q4 -2 0 -6l-75 -1v-26l75 1q3 0 3 -2t-2 -3l-76 -2v-29l81 2q6 1 5 11v82
zM80 49l16 -8q2 -1 0 -3l-3 -4q-3 -13 -2 -28q0 -6 12 -9q22 -6 53 -1l1 1q8 2 8 6v22q1 2 2 2t2 -2t3 -5q7 -17 21 -20q8 -3 8 -9q0 -5 -9 -8q-18 -8 -45 -9q-32 -1 -50 5t-21 24q-1 11 0 33q1 7 1 11q0 3 3 2zM189 41q41 -8 46 -20q0 -11 -9 -19q-8 -3 -12 3
q-13 24 -27 33q-1 1 0 2q0 1 2 1zM41 43q1 3 4 0q14 -26 11 -41q-6 -7 -20 -10q-6 0 -7 3q-1 2 2 6q13 19 10 42zM138 216l14 -16q1 -3 -1 -3q-24 -10 -61 -20l-1 1q27 16 49 38zM121 56q27 -12 26 -20q-1 -11 -10 -14q-8 -4 -9 4q-3 18 -10 28q1 3 3 2z" />
    <glyph glyph-name="uni60F3" unicode="&#x60f3;" 
d="M222 170l1 -65q1 -21 -12 -38q-6 -4 -7 0q-5 10 -10 16l-42 -1q-3 -9 -13 -18q-3 -2 -4 -1q-1 0 -1 3v46l1 64l-1 20l18 -12l46 2l11 12l22 -18zM55 166q-6 0 -14 -1q-10 -1 -13 -1l-8 7l50 1v11v28q-1 2 0 3h2l21 -8q2 -1 1 -3l-3 -8v-23l14 1l13 11l14 -13q1 -1 1 -2
t-2 -1l-40 -1v-53v-31q-1 -14 -17 -27q-2 -2 -4 -2q-2 1 -2 4l1 47l1 24q-16 -19 -51 -46q-8 -5 -11 -8q-3 -1 -2 2q35 35 62 89h-13zM83 55l17 -8q2 -1 0 -4l-3 -3q-3 -15 -2 -30q0 -8 12 -10q27 -4 59 0q8 2 8 9v21q0 2 1 2q2 1 2 -1q6 -24 25 -31q7 -2 7 -8q0 -5 -8 -9
q-18 -8 -48 -9q-34 0 -53 6q-18 7 -20 26q-2 20 1 48q0 3 2 1zM152 179v-25h41q2 0 2 -2q0 -1 -2 -2l-41 -1v-26l42 1q2 0 2 -2t-2 -2l-42 -1v-32l47 1v87q-1 5 -5 5zM196 46q43 -8 47 -21q0 -11 -9 -21q-8 -4 -12 4q-12 23 -27 36q-3 2 1 2zM45 47q1 2 2 1q1 0 2 -2
q10 -34 1 -46q-9 -9 -22 -8q-6 1 -7 5q0 3 5 6q17 16 19 44zM127 61q28 -12 28 -21q-1 -12 -11 -16q-8 -4 -10 4q0 19 -9 30q-1 2 0 3t2 0zM94 147q28 -10 33 -18q3 -6 -6 -17q-3 -3 -5 -3q-3 1 -4 6q-9 22 -19 31q-1 2 1 1z" />
    <glyph glyph-name="uni6210" unicode="&#x6210;" 
d="M61 172q0 3 2 2l25 -14l59 2v23q1 16 1 24l25 -9q2 -1 0 -3l-5 -5q-1 -15 -1 -30l42 1l14 16l18 -17q2 -3 -1 -3l-73 -2q-1 -45 11 -79q12 22 21 46l19 -13q4 -3 0 -5q0 -1 -2 -3q-1 -2 -2 -3q-13 -24 -27 -43q14 -27 38 -42q6 -4 10 1l10 10q1 1 3 1q2 -1 1 -3
q-10 -15 -2 -26q5 -12 -1 -17q-7 -5 -20 1q-35 16 -56 56q-30 -34 -99 -67q-1 -1 -2 1q0 1 1 2q60 35 94 81q-16 44 -16 101l-63 -1v-41v-1l26 1l8 12l20 -10q2 -1 0 -3l-6 -10v-28l1 -19q-2 -25 -28 -41q-2 -1 -3 0q-2 1 -1 3q2 12 -8 14q-2 4 1 4q17 -2 15 13l2 60l-27 -1
q4 -71 -81 -130q-2 -1 -2 1q-1 1 1 2q36 30 48 61q12 29 12 85v15zM189 197q19 -5 21 -10q-1 -7 -7 -13q-4 -3 -6 2t-7 14l-3 6q0 1 2 1z" />
    <glyph glyph-name="uni6211" unicode="&#x6211;" 
d="M139 211q0 3 2 2l25 -11q3 0 0 -2l-4 -6v-4q-2 -30 -1 -57l36 1l15 15l18 -17q1 -1 1 -2t-2 -1l-67 -3q2 -39 11 -66q16 24 26 45q0 3 2 1l19 -15q3 -2 -1 -5q-22 -23 -40 -41q12 -28 36 -41q6 -3 10 1l11 13q1 1 3 1q1 -1 0 -3q-7 -13 -7 -29q2 -9 -2 -13q-5 -3 -14 2
q-37 22 -53 55q-29 -24 -50 -35q-3 -1 -2 2q28 20 47 43q-13 35 -16 84l-43 -2v-39l22 7q4 1 1 -2l-24 -14v-63q-1 -27 -27 -40q-2 -1 -2 0q-1 0 -1 2q1 11 -9 19q-1 1 0 2q0 1 2 1q19 -2 17 9l1 58l-10 -5q-22 -13 -33 -22q-1 -1 -3 0l-11 26q1 0 3 1q11 2 27 7l27 8v44
l-23 -1q-11 0 -25 -3h-3l-8 9l59 3v42q-1 2 0 3h2l22 -10q2 0 1 -3l-4 -7l-1 -25l42 2v17q-1 12 -1 19v21q-1 14 -1 22zM106 212l16 -16q1 -3 -2 -4q-31 -7 -84 -20q-3 0 -1 2q43 17 68 38q2 2 3 0zM182 194q30 -11 31 -22q-2 -11 -12 -16q-9 -3 -10 5q0 20 -12 31q0 3 3 2z
" />
    <glyph glyph-name="uni6253" unicode="&#x6253;" 
d="M58 211l24 -9q3 -1 1 -3l-4 -8v-35l12 1l13 13l16 -14q1 -3 -2 -3l-39 -3l-1 -48q4 1 11 4q9 3 30 12q2 -1 0 -4q-23 -14 -41 -26v-26l1 -48q1 -26 -29 -43q-2 -1 -3 -1q-1 1 -1 3q1 15 -8 19q-1 1 -1 2q1 2 2 1q20 -3 17 9l1 69q-21 -13 -29 -22q-3 -2 -4 1l-10 28
q0 2 1 2q7 1 28 8q9 3 14 4v55l-11 -1q-16 0 -27 -3l-7 8l45 2v5q0 13 -1 34v15q0 3 2 2zM151 174q-18 -1 -27 -4l-10 8l99 3l14 15l17 -16q1 -1 1 -2t-2 -1l-70 -3l22 -7q2 0 0 -3l-3 -8l-1 -94l1 -43q1 -28 -34 -47q-3 -1 -4 0t0 3q0 15 -9 20q-2 1 -1 2q0 1 2 1
q25 -1 22 6v122l-1 48h-16z" />
    <glyph glyph-name="uni6389" unicode="&#x6389;" 
d="M126 80q-2 -8 -12 -17q-6 -2 -6 3l1 72q0 3 -1 11v7t2 1l17 -8l21 1v21l-1 43l26 -7q3 -1 1 -4q-5 -5 -5 -10v-14l40 1l12 12l16 -14q2 -2 0 -2l-68 -2v-24l25 1l7 12l22 -11q2 -1 0 -3l-5 -9l1 -46q-2 -12 -14 -26q-5 -4 -6 1q-2 5 -7 11q-1 1 -1 2l-22 -1v-32l47 2
l15 17l19 -19q1 -1 1 -2t-2 -1l-80 -3v-10l1 -33q-2 -16 -18 -28q-4 -2 -5 3l1 43v24l-31 -1q-17 0 -26 -3l-9 8l66 3l1 31h-23zM54 213l23 -8q2 0 0 -4l-4 -7v-35h6l10 12l15 -13q1 -2 -1 -3l-30 -2l-1 -42q5 2 14 7q10 4 14 6q2 -1 0 -3q-15 -12 -28 -21v-43l1 -40
q0 -24 -29 -43q-2 -2 -4 -1q-1 1 0 4q0 14 -7 18q-2 1 -1 2q0 2 2 1q19 0 16 9l1 75q-18 -15 -25 -23q-3 -3 -4 0l-7 27q-1 2 0 2l1 1q11 3 35 13l1 50l-32 -1q-3 -1 -4 1q-1 3 2 4l34 2v4q0 13 -1 34v15v2q1 1 3 0zM195 146l-68 -2v-25l63 1q2 0 2 -2t-3 -3l-62 -1l-1 -29
l68 2z" />
    <glyph glyph-name="uni63A5" unicode="&#x63a5;" 
d="M56 211l23 -8q3 0 0 -4l-3 -7l-1 -38h7l11 12l14 -13q1 -1 1 -2t-2 -1l-31 -2l-1 -40l30 12q2 0 1 -3l-5 -4l32 1q0 35 -2 48q0 3 2 2l17 -8l1 -1q1 0 1 -2l-1 -38h28l2 21q0 6 1 17t0 15q1 2 2 0l22 -9q3 -2 1 -2l-4 -7l-7 -34h20l13 15l17 -17q2 -2 -1 -2l-90 -2
l19 -10q2 0 0 -3l-6 -5l-14 -19l66 2l13 14l17 -16q1 -2 -1 -2l-50 -2l12 -7q1 0 1 -2l-4 -3q-16 -22 -30 -35q44 -11 50 -18q5 -8 3 -23q-5 -10 -13 -3q-16 19 -51 34q-35 -24 -101 -46q-3 -1 -4 1q0 1 2 4q57 21 88 48q-9 4 -27 8l-9 3q8 16 17 37h-6q-14 -1 -25 -3l-8 7
l42 1q10 28 14 37h-21q-20 -1 -28 -4l-5 5q-10 -8 -21 -14v-32l1 -48q0 -27 -28 -44q-2 -1 -4 0q-1 1 0 3q0 13 -8 19q-1 1 -1 2t2 1q20 0 18 9v75q-10 -7 -22 -18q-3 -2 -4 -3q-3 -3 -4 0l-9 26q0 2 2 2q2 1 5 2q9 2 32 11l1 46l-6 -1q-16 0 -26 -3l-8 8l40 2v7q0 13 -1 34
v15q0 3 2 2zM124 33q4 -1 11 -2q15 -4 23 -5q18 19 29 43l-38 -1zM139 171q-3 0 -8 -1q-12 0 -18 -2l-9 7l50 1l1 35l26 -6q3 -1 0 -5l-3 -7l-1 -17l24 1l12 12l15 -14q2 -2 -1 -2z" />
    <glyph glyph-name="uni653E" unicode="&#x653e;" 
d="M177 214l24 -17q2 -3 -1 -4q-6 -5 -10 -11q-8 -18 -20 -36l44 4l13 15l19 -16q2 -3 0 -3l-79 -6q-8 -12 -14 -23h2q5 -29 17 -50q14 31 21 74l19 -14q5 -1 0 -8q-11 -38 -29 -68q26 -31 68 -50l2 -1q0 -1 -2 -2q-13 1 -36 -15q-32 24 -45 51q-22 -28 -67 -55q-1 -1 -2 0
t0 3q41 28 63 68q-6 19 -11 58q-1 5 -1 8q-3 -5 -10 -15q-6 -10 -10 -15q-3 -1 -2 2q36 79 45 125q0 2 2 1zM54 162q-18 0 -27 -3l-7 7l52 1l2 44l24 -6q3 0 1 -5l-3 -7l-2 -25h28l11 14l15 -15q1 -1 1 -2t-2 -1l-77 -2l15 -6q3 0 1 -4l-3 -6l-2 -26l24 1l8 11l19 -12
q2 -1 0 -3l-6 -6l-5 -64q-2 -47 -36 -61q-2 -1 -2 2q0 13 -6 17q-2 3 1 3q21 -4 22 28l5 80l-24 -1l-1 -4q-5 -87 -76 -142q-2 0 -3 1q0 1 1 2q53 46 59 140l1 25q2 16 0 25h-8z" />
    <glyph glyph-name="uni6559" unicode="&#x6559;" 
d="M64 167q-14 0 -23 -3l-8 8l40 1l-1 39l25 -7q3 -1 0 -4t-5 -10v-18l8 1l10 10l12 -13q2 -2 -1 -2l-29 -1l-1 -34h6q21 25 43 61l16 -15q0 -1 -1 -3l-4 -2q-17 -23 -34 -41l8 1l11 12l15 -14q2 -3 -1 -3l-38 -1q-5 -6 -17 -17l-8 -8l24 2l10 9l14 -15q4 -3 -2 -6
q-17 -3 -42 -19q3 -1 6 -1t2 -2v-12l33 10q2 1 1 -2l-34 -16q1 -19 -1 -44q-3 -19 -27 -33q-2 0 -2 3q0 13 -9 16q-1 1 -1 2t1 1q19 -1 17 10q2 18 2 35l-18 -8q-18 -9 -24 -16q-2 -1 -2 1l-11 18l55 17q-1 13 -1 25q0 2 1 1q2 0 4 -2q3 -1 4 -2l21 24l-28 -2
q-32 -29 -76 -57q-2 -1 -2 1q-1 2 1 3q38 29 60 52q-10 -1 -16 -3l-7 7l30 2q2 3 7 8q4 4 15 17l-44 -1q-16 -1 -24 -3l-9 7l57 2l1 34h-9zM110 -21q-2 -1 -3 0q0 2 1 3q41 28 58 61q-7 18 -13 62q-1 3 -1 4q-4 -6 -9 -13q-3 -2 -2 2q29 65 37 112q0 3 2 2l24 -17
q2 -2 -1 -5q-6 -3 -10 -11q-10 -22 -24 -43l45 2l13 15l19 -16l1 -2q-1 -1 -2 -1l-47 -3l15 -10q3 -2 -1 -9q-13 -45 -28 -68q22 -32 67 -48q2 -1 2 -2q0 -2 -2 -2q-17 1 -37 -16q-29 25 -42 51q-15 -20 -62 -48zM165 129q-4 -7 -10 -15q7 -31 19 -54q10 30 16 71z" />
    <glyph glyph-name="uni662F" unicode="&#x662f;" 
d="M56 97q-19 -1 -28 -3l-6 8l188 3l16 14l16 -16q1 -2 -1 -3l-96 -1l-2 -93q38 -5 101 0q2 0 2 -1t-1 -2q-21 -3 -29 -25q-53 0 -83 6q-27 8 -49 56q-23 -29 -72 -58q-2 -1 -3 0t0 2q56 38 76 97q2 3 3 2l15 -11q3 -2 0 -5q-7 -12 -16 -23l4 -5q15 -21 32 -27l1 86zM96 127
q-3 -6 -12 -13q-3 -2 -4 -1q-1 0 -1 3v73v18q-1 3 2 2l16 -7v-4l65 2l7 9l19 -10l1 -1q1 0 0 -2l-4 -7v-48q0 -10 -10 -24q-5 -6 -8 -1q-5 8 -8 13zM162 196l-65 -2v-27l57 1q2 0 1 -2q0 -2 -2 -2l-56 -1l-1 -32l66 3v62zM198 72l8 -17q0 -3 -4 -2h-5q-16 -1 -41 -1
q-3 1 -1 2q25 8 43 18z" />
    <glyph glyph-name="uni6709" unicode="&#x6709;" 
d="M59 161q-16 0 -28 -3l-7 9h89q10 24 17 49l26 -17q4 -3 0 -5l-9 -5q-5 -10 -11 -21h79l16 16l19 -17q1 -2 -2 -3l-114 -2q-12 -21 -25 -40l75 2l9 10l21 -15q2 -1 -1 -3l-6 -7l2 -93q3 -31 -25 -46q-3 -2 -4 1q-1 13 -8 16q-1 0 -1 1q1 2 2 2q14 -2 12 10l-2 119l-78 -3
l-1 -1v-35l66 2q3 -1 4 -2q0 -2 -3 -3l-67 -3l-1 -35l69 3q4 -1 4 -3q0 -1 -3 -2l-70 -3v-28q0 -14 -12 -30q-3 -4 -5 -5q-2 1 -2 5l3 117q-35 -41 -82 -71q-2 -1 -2 1q-1 1 1 2q67 48 106 137z" />
    <glyph glyph-name="uni6765" unicode="&#x6765;" 
d="M71 164q-3 0 -9 -1q-14 0 -18 -2l-8 8l78 1v1l-1 44l28 -8q3 0 1 -3q-3 -3 -5 -10v-24l47 1l16 15l18 -18q2 -1 -1 -3l-80 -1v-60h14q15 28 22 53q0 3 2 1l23 -9l2 -1q0 -1 -2 -2l-5 -5q-20 -22 -36 -37h47l14 15l19 -17q1 -1 1 -2t-2 -1l-88 -1q11 -44 93 -79q3 -1 0 -4
q-11 2 -34 -17q-54 38 -61 100h-9l1 -64v-35q-4 -18 -21 -31q-4 1 -4 5l2 60l-1 36q-41 -45 -105 -82q-2 -1 -3 0q0 1 1 3q53 40 99 108l-53 -1q-17 0 -26 -2l-9 8l96 1v60h-43zM65 154q31 -17 29 -26q-2 -11 -12 -16q-9 -1 -10 6q-1 21 -9 34q-2 3 2 2z" />
    <glyph glyph-name="uni679C" unicode="&#x679c;" 
d="M83 114q-4 -9 -13 -14q-6 -5 -7 1l2 42v46q0 4 -1 12v8t2 1l18 -12l86 2l9 12l22 -11q1 0 1 -2l-6 -10v-32l1 -27q1 -12 -13 -25q-5 -6 -8 -1q-3 6 -7 11q-1 1 -1 2l-28 -1v-30l70 2l15 17l19 -19q1 -2 -1 -3l-96 -2q28 -46 101 -62q3 -1 0 -4q-23 -1 -38 -20
q-45 22 -66 86h-4l-1 -80q0 -21 -26 -31q-2 -1 -3 1q0 14 -7 19q-2 0 -2 1q0 2 2 2q16 -2 14 7v55q-50 -44 -112 -70q-2 0 -2 1t1 3q54 28 107 91l-54 -1q-19 -1 -31 -3l-7 8l98 2l-1 29zM171 196l-51 -2l20 -9v-24h23q2 1 2 -2t-2 -2l-23 -1v-2v-33l30 1zM116 149v6l-32 -1
l-1 -34l33 1v28zM84 193v-34l32 1l-1 34z" />
    <glyph glyph-name="uni6B21" unicode="&#x6b21;" 
d="M49 -33q-2 -1 -3 -1q-1 1 0 3q53 33 70 66q18 31 20 99l30 -13q2 -1 0 -3l-3 -2q2 -72 83 -128q1 -1 0 -3q0 -1 -2 0q-15 2 -35 -12q-46 40 -48 142l-2 -1q-1 -98 -110 -147zM194 162l11 12l25 -19q2 -2 2 -3q-1 -2 -4 -2q-20 -8 -38 -21l-2 -1q-1 1 -1 2l7 27l-67 -3
q-14 -22 -40 -51q-1 -1 -3 0q-1 1 0 2q34 50 44 111l26 -11q5 -1 1 -6q-10 -19 -23 -39zM97 163l-43 -115q-8 -19 -2 -39q4 -8 -3 -11q-5 -5 -18 -6q-7 1 -5 8q9 34 -6 39q-1 2 1 3q12 -4 15 4l57 118q3 3 4 -1zM34 191q32 -15 32 -28q-2 -12 -14 -17q-9 -1 -10 7
q-3 25 -11 36q0 3 3 2z" />
    <glyph glyph-name="uni6B22" unicode="&#x6b22;" 
d="M114 53q-3 -11 -12 -20q-5 -4 -8 3q-8 20 -20 38q-24 -41 -69 -82q-2 -1 -2 0q-1 1 0 3q41 45 61 96q-17 26 -31 43q-2 3 2 2q16 -12 34 -29q9 25 16 60l-54 -3q-3 0 -4 3q0 2 3 3l54 4l12 14l23 -15q2 -2 0 -4l-9 -10q-10 -37 -25 -66q15 -15 27 -28q4 -6 2 -12zM62 -34
q-2 -1 -3 0t0 2q52 32 69 65q17 29 19 100l29 -12q2 -1 0 -3l-3 -2q2 -73 81 -129q1 -1 0 -2q0 -1 -2 -1q-12 4 -33 -11q-45 41 -48 142l-2 -1q-1 -101 -107 -148zM200 162l10 11l26 -18q2 -2 2 -4q-1 -1 -5 -2q-17 -6 -37 -21q-3 -1 -3 2l7 26l-54 -2q-12 -19 -39 -52
q-3 -2 -2 1q29 45 42 109q0 3 1 2l22 -10q4 -2 1 -5q-9 -19 -21 -40z" />
    <glyph glyph-name="uni6B63" unicode="&#x6b63;" 
d="M58 178q-18 -2 -24 -3l-8 9l173 1l13 14l19 -16q2 -3 -1 -4h-100l19 -5q3 -1 0 -4t-5 -10l-1 -61l38 1l14 14l19 -16q2 -2 0 -3l-71 -2l-1 -97l64 1l15 14l20 -16q1 -2 -1 -2l-193 -4q-14 -1 -27 -3l-7 8l49 1v90l-1 45l28 -8q3 -1 0 -4t-5 -10l-2 -113l38 1v140l-1 42
h-61z" />
    <glyph glyph-name="uni6B64" unicode="&#x6b64;" 
d="M130 126q3 -2 0 -4l-26 -3l-1 -101l24 6q2 0 3 -1q0 -1 -1 -2l-71 -28q-3 -2 -9 -4q-14 -7 -20 -11q-4 -2 -5 0l-12 19q-3 2 0 3q16 0 35 5h2l-1 121q0 7 -1 18q0 14 -1 19l24 -10q2 -1 0 -4l-5 -7l-2 -134l25 6l-1 158q0 20 -2 37l25 -11q2 -1 0 -3l-5 -7l-1 -64z
M202 155l14 -16q1 -2 1 -3q-1 -1 -3 -1q-8 -2 -30 -8q-19 -4 -29 -7l-1 -93q-3 -22 17 -20q19 -1 42 3q13 0 20 26q0 2 2 1q2 0 2 -2q-2 -18 4 -23q15 -13 -4 -22q-29 -11 -67 -6q-36 3 -34 47l1 141q0 18 -2 39l27 -12q1 0 2 -1l-2 -2l-5 -6l-1 -65q24 11 46 30z" />
    <glyph glyph-name="uni6C11" unicode="&#x6c11;" 
d="M127 37q2 0 3 -1q0 -1 -1 -2l-66 -34q-13 -7 -26 -17q-4 -3 -6 -1l-14 15q-2 3 1 3q14 3 33 10h1l1 138l-1 51q0 3 3 1l19 -12l94 2l14 15l22 -17q3 -1 0 -4l-5 -5l-1 -31l1 -3q1 -3 -1 -3h-12q-21 1 -38 0l5 -4q3 -3 0 -4l-4 -5q0 -19 2 -34l45 2l14 15l18 -16
q1 -3 -1 -3l-75 -3q11 -56 63 -83q5 -3 10 1l12 11q3 3 2 -1q-8 -16 -6 -30q2 -9 -3 -13q-5 -3 -14 1q-72 33 -84 114l-60 -3l-1 -70zM74 183l-1 -37l96 3l1 36zM127 142q-32 0 -54 -1l-1 -48l59 2q-3 21 -4 47z" />
    <glyph glyph-name="uni6CA1" unicode="&#x6ca1;" 
d="M98 97q-2 0 -3 3q1 3 3 3l77 2l12 11l23 -16q2 -3 0 -4l-11 -8q-18 -28 -44 -52q35 -28 89 -41q1 0 2 -1l-2 -2q-19 0 -38 -20q-44 25 -65 52q-33 -29 -88 -55q-2 -1 -3 1q-1 1 0 3q48 27 81 64q-17 27 -23 60h-10zM128 188q3 -51 -43 -88q-1 -1 -2 -1q-2 1 -1 2
q26 32 27 73v15l-1 17l19 -13l36 2l9 13l23 -11q2 -1 0 -3l-6 -9l-10 -33q-3 -7 5 -9q16 -3 32 4q3 1 6 1l1 -1q4 -2 12 -9q4 -4 3 -6t-7 -5q-19 -7 -43 -4q-27 4 -25 34l2 33zM89 152l-27 -116q-5 -18 2 -33q3 -5 -2 -10q-7 -8 -18 -9q-7 1 -6 8v8q1 10 1 13q2 10 -9 13
q-2 2 0 4q11 -4 15 8l41 115q1 2 2 1q2 0 1 -2zM174 99l-63 -2q8 -28 30 -48q20 24 33 50zM25 144q31 -13 31 -27q-2 -10 -13 -14q-10 -1 -11 7q-1 19 -10 32q-1 1 0 2t3 0zM46 206q34 -13 35 -23q-1 -11 -11 -18q-9 -3 -11 5q-5 24 -15 34q-1 3 2 2z" />
    <glyph glyph-name="uni6D88" unicode="&#x6d88;" 
d="M204 196l20 -15q2 -1 0 -3q-28 -26 -50 -45l21 1l10 10l22 -15q2 -1 0 -3l-7 -7l2 -98q3 -30 -27 -46q-3 -2 -4 1q-1 12 -7 17q-1 0 -1 1q0 2 1 2q15 -2 12 9l-1 123l-70 -3v-32l51 2q4 -1 4 -2q0 -2 -3 -3l-52 -2l-1 -34l53 3q4 -1 4 -3q0 -1 -3 -2l-54 -3v-40
q1 -14 -11 -31q-3 -4 -5 -5q-2 1 -3 5l1 51l1 73v43l20 -14l22 1l1 82l26 -6q3 -2 0 -5l-3 -8l-1 -58q21 35 29 57q2 3 3 2zM92 143l-24 -116q-5 -17 1 -28q3 -5 -2 -11q-6 -6 -18 -10q-6 0 -6 7q2 9 2 22q1 8 -10 12q-1 2 1 4q11 -2 13 6l40 114l2 2q1 -1 1 -2zM26 141
q32 -12 32 -28q-2 -12 -14 -15q-9 -1 -10 7q-1 22 -10 33v1q-1 3 2 2zM51 202q32 -9 33 -22q-1 -11 -12 -16q-8 -2 -10 5q0 1 -1 4q-5 20 -12 27v1q-1 2 2 1zM110 188q33 -15 29 -25q-2 -11 -12 -14q-8 -1 -9 6q-2 21 -11 31q-1 2 3 2z" />
    <glyph glyph-name="uni70B9" unicode="&#x70b9;" 
d="M198 48q-28 3 -100 3h-13v-3q-1 -17 -15 -27q-6 -4 -7 2v102q0 3 3 2l18 -10l31 1v56l-2 42l30 -7q3 0 1 -3q-3 -3 -5 -10v-27l52 1l15 15l16 -17q2 -2 0 -2l-83 -2v-46h29l12 14l23 -14q3 -1 1 -3l-6 -8l1 -48l2 -7q1 -3 0 -3q0 -1 -3 -1zM85 111v-54l85 1v55zM182 30
q30 -13 40 -24q10 -7 1 -19q-2 -3 -6 -8l-2 -1q-12 -8 -16 5q-7 34 -19 45q-1 2 2 2zM50 22q10 -16 2 -35q-7 -17 -19 -14q-8 8 0 20q14 9 15 28q0 2 2 1zM137 23q0 2 3 1q21 -16 23 -25q0 -10 -10 -16q-9 -4 -10 5q-2 19 -6 35zM92 21q0 2 1 2t2 -1q17 -19 17 -27
q-3 -9 -11 -14q-5 -2 -7 0q-3 1 -2 6q2 23 0 34z" />
    <glyph glyph-name="uni7626" unicode="&#x7626;" 
d="M69 197q-1 2 1 1l23 -14v-1l51 1l2 31l29 -6q2 0 0 -3q-5 -5 -6 -22l38 1l14 15l18 -16q1 -2 -2 -3l-86 -2l18 -9q2 0 0 -3l-2 -7v-63h27v25l-21 -1q-4 1 -1 5l22 1v21l-21 -1q-3 0 -3 3t2 3h22l8 12l19 -10l1 -1q1 0 0 -2l-5 -8v-49l1 -3q0 -2 -1 -2q-19 2 -44 2l-7 -1
v-24l27 1l11 11l21 -12q3 -3 0 -4l-7 -6q-22 -22 -49 -40q18 -8 65 -21q10 -3 15 -4q2 -2 0 -3q-16 0 -30 -18q-44 16 -67 36q-43 -22 -100 -38q-3 0 -2 3q52 18 92 45q-13 18 -24 39l3 1q9 -18 32 -31q23 18 39 37l-89 -3q-4 2 -1 6l47 1l-1 24h-31q-2 -8 -10 -14
q-5 -4 -6 0l1 29v23q0 26 -1 33q0 1 2 1l14 -10q7 5 15 15l2 2l11 -14q0 -1 -1 -1l-4 -1q-10 -3 -21 -4l-1 -8l-1 -18h9l8 10l11 -11q1 -2 -1 -2l-27 -1v-24h31v49q0 17 -2 34l-57 -2v-68q8 -96 -85 -141q-2 0 -2 2q0 1 2 2q40 26 52 53q13 26 14 89q-32 -34 -48 -59
q-5 -7 -11 -6q-5 2 -3 9q7 16 4 25q6 -10 58 38v40q0 7 -1 21v15zM29 165q26 -8 29 -19q0 -11 -9 -16q-7 -3 -8 3q-2 20 -13 30q-1 3 1 2z" />
    <glyph glyph-name="uni7684" unicode="&#x7684;" 
d="M81 213l17 -18q0 -2 -1 -2l-8 -3q-22 -14 -42 -24l2 -2v-3l35 1l10 11l22 -14l2 -1l-2 -2l-7 -9v-35q28 37 45 101l22 -13q1 0 2 -1l-2 -2l-4 -4q-7 -16 -16 -28l45 2l11 14l23 -15q2 -1 0 -3l-8 -11l-2 -87l1 -32q-3 -43 -44 -61q-4 -1 -3 3q3 17 -7 23q-2 1 -1 2h2
q29 0 27 22l2 140l-49 -3q-18 -27 -44 -53l-1 -42l2 -39q-2 -18 -12 -31q-3 -4 -6 -4q-2 0 -3 4q-5 19 -8 24h-35v-14q-1 -17 -14 -30q-5 -3 -5 1l2 70l1 98l-1 30q1 3 4 2l11 -7q23 23 37 45zM48 155l-1 -56l30 1q2 1 2 -2t-2 -3l-30 -1l-1 -70h38l2 132zM141 114q-1 3 1 2
q40 -18 40 -27q2 -12 -12 -21q-13 -4 -14 5q-1 24 -15 41z" />
    <glyph glyph-name="uni76F4" unicode="&#x76f4;" 
d="M66 171q-20 -1 -29 -3l-7 8l85 2l-1 38l30 -9q3 -1 0 -4t-4 -10l-1 -15l56 1l14 15l19 -17q2 -2 0 -3l-90 -2l-1 -31h28l10 13l22 -12q2 0 0 -3l-6 -7v-144h19l16 15l20 -17q2 -2 -1 -2l-196 -4q-14 -1 -27 -3l-8 8l55 1v125l-1 36q0 3 2 2l19 -9h25l1 32zM154 26
q3 0 3 -2t-2 -3l-67 -2l1 -33l77 2v148l-78 -2v-33l65 2q3 0 3 -3t-2 -3l-66 -2v-32l64 2q3 0 3 -2q0 -3 -3 -3l-64 -2v-33z" />
    <glyph glyph-name="uni7801" unicode="&#x7801;" 
d="M185 194l-62 -2q-3 2 0 5l62 2l10 12l20 -13q2 -1 0 -3l-7 -9l-10 -88h11l10 13l21 -13q2 0 0 -3l-6 -8q-5 -65 -17 -89q-8 -16 -32 -26q-6 -2 -5 3q2 15 -9 21q-1 1 -1 2q1 2 2 1q20 -5 21 0q13 22 16 94l-68 -2q-3 -7 -15 -15q-4 -2 -5 3l4 30l2 28q3 29 2 36l23 -10
q2 -1 0 -3l-2 -4l-8 -59l33 1zM57 181q-18 0 -28 -2l-7 6l69 3l11 11l14 -14q0 -2 -1 -2l-50 -1l15 -8q3 0 1 -4l-3 -4q-1 -2 -4 -7q-6 -10 -20 -30l7 -4h19l8 11l19 -10q2 -1 0 -2l-4 -7v-69l1 -5q1 -3 -2 -3h-6q-17 2 -36 2v-13q-1 -17 -12 -29h-2q-2 -1 -3 0l1 40l1 77
q-18 -23 -41 -47q-2 -2 -2 2q39 49 55 109zM61 120l-1 -73l21 1l1 73zM145 42q-16 0 -30 -2l-7 7l62 1l12 13l17 -15q0 -2 -1 -2z" />
    <glyph glyph-name="uni786E" unicode="&#x786e;" 
d="M151 217l21 -9q2 -2 0 -4l-5 -5q-1 -2 -5 -6q-3 -5 -5 -7l25 1l8 8l18 -11q1 -1 0 -3q1 2 -1 -1l-9 -5l-24 -23l32 1l8 11l20 -11l2 -1q0 -1 -2 -2l-5 -8l1 -80l1 -31q1 -30 -33 -46q1 14 -5 18q-1 1 -1 2t1 1q19 -6 15 40l-1 102l-31 -1l12 -5q2 -1 0 -4l-2 -7v-19h13
q2 0 2 -2q0 -3 -2 -3h-13l-1 -37h15q3 0 3 -2q-1 -2 -3 -3h-15v-42q-2 -15 -12 -23q-2 -2 -4 -2q-1 0 -1 2v65l-19 -1q-9 -64 -108 -97q-2 0 -3 2q0 1 2 2q97 31 94 132v24q0 23 -1 32q-5 -4 -15 -14q-9 -9 -14 -13q-3 -1 -2 2q35 41 49 83zM60 180q-5 0 -14 -1
q-10 0 -14 -1l-7 6l69 2l11 11l14 -14q2 0 0 -2l-50 -1l15 -7q3 -1 0 -4l-3 -4q-9 -15 -26 -36l10 -6l19 1l8 10l19 -10q2 0 0 -2l-4 -7l-1 -67l1 -5q1 -3 -1 -3q-13 2 -43 2v-12q-1 -16 -12 -30q-3 0 -4 2l1 39l1 79q-18 -22 -41 -48q-2 -1 -2 2q43 61 55 106h-1zM65 118
l-2 -71l22 1l1 71zM135 161l20 -10l15 1l12 30l-29 -1q-9 -9 -18 -20zM152 106q0 -20 -2 -37l19 1v36h-17zM152 139v-28l17 1l1 35l-16 -1z" />
    <glyph glyph-name="uni79FB" unicode="&#x79fb;" 
d="M103 217l16 -17q2 -3 -1 -4q-18 -2 -38 -6l15 -5q2 -1 0 -2l-4 -8v-29h10l13 11l12 -13q1 -1 1 -2t-2 -1l-34 -1l-1 -29q23 -9 28 -18q1 -8 -9 -15q-6 -4 -8 3q-5 13 -11 22l-1 -58l1 -45q-2 -12 -17 -25q-6 -5 -7 0l2 72v40q-19 -27 -62 -64q-2 -2 -2 1q44 53 65 111v5
h-8q-10 0 -23 -2q-3 -1 -5 -1l-7 8h43l1 13q0 7 -1 19v11q-5 -1 -17 -3l-18 -3q-1 0 -2 2q0 1 1 1q57 21 70 32zM170 53l6 -3q6 -3 10 -4q15 19 26 40l-25 -1q-31 -31 -77 -62q-4 -1 -2 2q48 42 71 89q0 3 3 2l18 -15q2 -1 0 -3q-4 -3 -7 -8l20 1l10 10l20 -14q3 -2 0 -4
l-8 -7q-14 -21 -32 -39q12 -6 20 -14q1 -11 -11 -22q-4 -1 -9 5q-6 11 -13 18q-33 -28 -99 -58q-3 1 -1 3q56 31 89 69l-6 6q-3 5 -5 7q-2 3 2 2zM165 152q1 0 4 -2q9 -3 14 -5q13 18 23 37l-24 -1q-21 -26 -57 -55q-1 -1 -2 0t0 3q40 50 50 81v1q1 2 3 1l17 -14q2 -2 0 -3
q-4 -4 -7 -9l20 1l10 9l20 -13q2 -1 -1 -3l-8 -7q-14 -21 -29 -36q5 -3 6 -6q1 -10 -7 -18q-5 -3 -8 4q-2 2 -3 5l-1 2q-23 -21 -70 -52q-3 1 -1 4q38 29 62 60q-2 4 -8 9q-3 4 -5 6q-1 2 2 1z" />
    <glyph glyph-name="uni7A0B" unicode="&#x7a0b;" 
d="M103 215l16 -17q2 -3 -2 -4q-20 -3 -37 -6l15 -5q2 -1 0 -3l-4 -7v-29h10l12 11l13 -13q2 -3 -1 -3l-35 -1v-28q24 -9 30 -19q0 -10 -9 -15q-7 -4 -8 2q-5 15 -13 26l-1 -63v-43q-2 -15 -16 -26q-2 -3 -5 -3q-2 0 -2 3l2 71v42q-21 -30 -62 -65q-3 -1 -2 2q43 53 65 111
v4h-8q-15 0 -28 -2l-7 8h43v13q1 8 0 23v7q-18 -3 -35 -6q-1 0 -2 2q0 1 1 1q54 20 70 32zM220 135q-19 2 -71 -1q-1 -13 -12 -20q-4 -4 -5 0l1 40v45q0 3 2 2l14 -9l49 2l9 12l19 -12q2 0 0 -2l-5 -8l-1 -41l2 -5q1 -3 -2 -3zM126 98q-3 0 -3 2q0 3 2 3l80 3l13 13l15 -15
q2 -1 0 -2l-57 -2l15 -5q3 -1 0 -4q-3 -1 -5 -10v-29l17 1l11 12l16 -13l1 -2q-1 -1 -2 -1l-43 -2v-51h36l14 11l15 -13q2 -2 0 -2l-111 -4q-8 0 -20 -1h-10l-7 7l62 1v51l-31 -1q-2 0 -3 3q0 2 3 2l31 1v8l-1 40zM149 187v-47l49 2v47z" />
    <glyph glyph-name="uni7CD5" unicode="&#x7cd5;" 
d="M63 211l24 -10q2 -1 0 -3l-5 -7l-1 -44q16 24 19 36l14 -15q2 -1 -1 -2l-32 -27v-13h9l10 11l14 -13q1 -1 -2 -3l-31 -1l-1 -21q27 -10 28 -17q0 -7 -9 -14q-4 -2 -5 -2q-1 1 -2 4q-6 16 -12 23v-46v-47q-1 -12 -14 -26q-3 -3 -4 -3q-2 0 -2 3l2 75v17q-22 -35 -57 -73
q-2 -1 -3 -1q-1 1 0 3q39 49 60 121v4l-6 -1q-15 0 -30 -2l-7 8l43 1v48q0 28 -1 36q0 1 2 1zM189 210l23 -12l2 -1q0 -1 -2 -2l-4 -5l-14 -31l13 1l12 12l15 -15q2 -1 0 -2l-54 -1v-41h19l12 12l14 -14q2 -1 -1 -3l-44 -1v-50l39 1l13 13l15 -15q2 -2 0 -2l-117 -4
q-17 0 -22 -2l-7 7l57 2v49h-10q-16 0 -22 -1l-8 6l40 1v41h-19q-7 0 -22 -3l-7 7l28 1l-1 33q0 8 -1 12q0 3 3 2l17 -8q2 -1 2 -3l-1 -36l19 1zM211 29q22 -11 31 -19q9 -7 1 -16q-1 -1 -4 -5l-2 -2q-9 -6 -12 5q-6 26 -15 35q-1 3 1 2zM119 28q7 -21 2 -35q-7 -15 -20 -15
q-6 9 1 21q14 6 14 29q1 2 3 0zM177 25q0 2 3 1q21 -16 23 -26q1 -2 -2 -6q-2 -4 -8 -8q-10 -4 -10 5q0 16 -6 34zM145 23q0 2 2 1q16 -16 17 -25q0 -2 -1 -6q1 2 -1 -2q-3 -5 -10 -6q-8 -3 -8 6q3 14 1 32zM27 170q-1 2 0 3t2 0q19 -6 25 -16q3 -4 -6 -15q-3 -3 -5 -3t-3 4
q-5 18 -13 27z" />
    <glyph glyph-name="uni7CDF" unicode="&#x7cdf;" 
d="M175 215l19 -7q2 -1 0 -3q-3 -4 -3 -15v-8l26 1l12 11l15 -14q1 -2 -1 -2l-52 -1l-1 -22l14 1l8 8l22 -11q2 -1 0 -3l-5 -8v-18v-15q0 -13 -14 -29q-5 -6 -9 0q-2 6 -5 11l-69 -3q-6 -7 -13 -13q-4 -1 -4 1l1 34v24l-1 24q0 3 2 2l15 -6h12v16l-1 6q-17 0 -27 -3l-8 7
l35 1l-1 28q0 3 2 1l19 -6q2 -1 0 -4q-2 -2 -2 -10q-1 -2 -1 -4v-5l14 1v32q0 1 1 1zM138 -10q-4 -8 -12 -15q-3 -2 -4 -1q-1 0 -1 3l1 29v42q0 17 -1 21q0 2 3 1l16 -10v-1l50 2l9 12l21 -12q1 0 1 -2l-5 -8l1 -49q0 -11 -12 -25q-4 -6 -7 -1l-7 14l-1 2zM61 214l23 -10
q2 -1 0 -2l-5 -8v-45q11 17 19 35l13 -13q2 -1 -1 -3l-31 -26v-12h10l11 10l12 -12l1 -1q0 -1 -2 -2l-32 -1v-23q26 -9 28 -16q0 -8 -9 -14q-6 -3 -7 2q-6 18 -12 24v-57v-43q-2 -14 -14 -26q-6 -5 -7 1l2 70v30q-17 -27 -55 -71q-3 -1 -2 2q37 49 57 119v2h-6q-18 0 -28 -3
l-7 8l41 1v48v34q0 3 1 2zM193 57l-53 -2l-1 -27l47 3q2 0 2 -2t-2 -2l-47 -2v-30l54 2v60zM27 173q-2 3 1 2q17 -6 24 -15q3 -6 -5 -14q-7 -6 -9 0q-2 14 -11 27zM159 121v-27h15v28zM200 95q4 2 4 9l1 19l-15 -1v-27h10zM131 120v-27h13v27h-13zM160 150l-1 -25l15 1v24
h-14zM205 151l-15 -1v-24l15 1v24zM174 155v22l-14 -1v-22zM131 149v-25l13 1v24h-13z" />
    <glyph glyph-name="uni7CFB" unicode="&#x7cfb;" 
d="M182 213l15 -19q1 -1 1 -2t-2 -1q-19 -3 -68 -8l13 -8q3 -2 0 -5l-6 -2q-19 -12 -55 -30l61 2q20 16 30 27l23 -19q2 -1 -3 -3l-6 -3q-42 -24 -111 -54l111 4q-6 14 -13 23q-1 2 -1 3q1 1 3 0q41 -26 42 -36q1 -12 -15 -22q-7 -3 -9 4q-3 14 -6 24q-32 -4 -56 -9l21 -8
q2 -2 0 -3q-3 -3 -3 -8v-25v-23q0 -25 -33 -42q-1 -2 -2 -1t-1 4q1 15 -12 21q-3 3 1 4q26 -2 23 6l-1 42l-1 32q-44 -8 -63 -16q-2 -2 -5 1l-10 25q15 0 22 4q38 19 66 41q-46 -9 -61 -15h-1q-3 -2 -4 1l-9 19q12 1 20 7q21 14 37 36q-20 -2 -58 -5q-14 -1 -20 -2q-3 1 0 4
q85 13 146 35zM84 59l25 -13q3 -2 -1 -5l-5 -3q-38 -36 -91 -65q-2 -1 -3 0t0 3q48 34 75 83zM164 49q42 -17 55 -28q5 -12 -7 -24q-9 -9 -14 2q-11 26 -36 48q-2 1 2 2z" />
    <glyph glyph-name="uni7ED1" unicode="&#x7ed1;" 
d="M212 189l10 12l20 -15q2 -1 1 -2q0 -1 -2 -2l-7 -7l-32 -54q42 -38 40 -66q-3 -24 -32 -35q-1 -1 -2 2q1 17 -7 19q-1 1 0 2q19 -1 17 6q6 39 -22 72l16 63l-25 -1l-2 -128v-44q-1 -23 -14 -38q-7 -5 -7 0l3 67l2 166l18 -12v-6zM109 213l25 -10q2 -1 0 -3l-4 -6v-26
l10 1l11 11l14 -12q2 -1 -1 -3l-34 -1v-45l7 1l10 11l15 -12q2 -3 -1 -3l-31 -1v-12q-1 -19 -4 -36h14l10 12l14 -12l2 -2q-1 -1 -2 -1l-39 -2q-6 -49 -88 -95q-2 -1 -2 1q-1 2 1 4q60 37 70 90l-30 -1q-2 0 -2 3q0 2 2 2l30 1q4 16 4 37v10l-26 -1q-2 0 -2 3q0 2 2 2l26 1
v44l-26 -1q-2 0 -2 3q0 2 2 2l26 1v13zM76 164l16 -16q2 -1 -1 -4q-21 -29 -58 -63l48 3q2 -1 0 -2q-40 -18 -54 -26q-3 -3 -4 0l-6 23h1q7 0 13 8q18 22 30 45q-26 -10 -37 -16q-3 -2 -4 1l-5 19q9 1 14 9q17 30 26 68l21 -16q3 -2 -1 -7q-17 -24 -43 -52l33 2q7 13 11 24z
M87 49q4 1 1 -2l-33 -25q-16 -12 -24 -20q-2 -1 -2 0l-9 27q12 2 26 6z" />
    <glyph glyph-name="uni7EDF" unicode="&#x7edf;" 
d="M149 210l25 -8q3 -1 1 -4q-3 -2 -3 -11v-17l44 1l14 15l16 -16q1 -1 1 -2t-2 -1l-92 -2l13 -12q2 -1 1 -2q0 -1 -3 -2q-22 -18 -44 -32l86 3q-2 9 -11 21q-2 2 1 2q30 -16 36 -26q2 -4 0 -10q0 -1 -1 -2q-3 -7 -7 -10q-11 -7 -14 3q0 11 -3 18q-43 -7 -102 -23
q-3 -2 -4 1l-6 19q0 3 3 3q9 1 14 6q20 17 33 43l-24 -1q-17 0 -27 -3l-8 8l62 1l-1 38q0 2 2 2zM82 164l21 -19q2 -1 -1 -4q-32 -37 -65 -68l55 4q2 -3 0 -3q-55 -20 -65 -27q-5 -2 -5 1l-6 24q9 -1 17 8q17 21 32 48q-19 -6 -42 -15q-4 -3 -5 0l-4 20q7 -1 15 8
q19 28 30 69l24 -16q2 -1 -2 -6q-15 -21 -48 -54l36 2q10 17 13 28zM194 91q1 -1 1 -2l-3 -6l-6 -66q-2 -9 8 -10q23 0 30 2q8 2 13 23q1 2 2 2q2 -1 2 -3q-2 -12 5 -23q11 -14 -5 -21q-20 -6 -45 -4q-25 5 -26 29v68v19zM128 98l26 -7q2 -1 0 -3l-3 -7q4 -84 -107 -116
q-2 -1 -3 0q0 1 1 3q55 23 71 47q18 27 15 83zM97 40q2 0 3 -1q0 -1 -1 -2l-40 -23q-23 -13 -30 -20q-2 -2 -3 0l-10 26q5 1 18 4q7 1 11 2z" />
    <glyph glyph-name="uni7EE9" unicode="&#x7ee9;" 
d="M84 162l18 -17q1 -1 0 -3q1 2 -1 -1q-28 -39 -61 -70l57 6q2 0 2 -1t-1 -2q-2 -1 -5 -2q-54 -21 -62 -25q-4 -3 -4 0l-6 24q8 0 16 8q16 21 30 48q-27 -9 -40 -15q-3 -3 -4 0l-4 19q7 1 14 9q14 22 28 67l21 -13q3 -2 -1 -5q-16 -25 -44 -56l34 1q2 6 8 17q3 7 5 11z
M199 116l21 -12q2 -1 0 -3l-5 -8v-25l1 -22q-2 -12 -16 -27q-3 -2 -5 -1q-2 0 -2 4l-2 79l-60 -2v-63q0 -13 -12 -27q-3 -3 -4 -2q-2 1 -2 4l-1 75l-1 26q0 3 2 2l21 -10l57 2zM134 179q-11 0 -23 -2q2 1 -2 0l-9 7l49 1l-1 31l27 -8q3 0 1 -3q-3 -3 -4 -10v-10l33 1l12 12
l14 -14q1 -2 -1 -2l-58 -2v-22l19 1l12 12l15 -14q2 -2 -2 -2l-44 -2l-1 -22l46 1l12 14l18 -16q2 -2 -1 -2l-117 -3q-16 0 -26 -3l-9 8l55 1v21h-3q-19 0 -26 -2l-8 7l37 1l1 14l-1 7h-15zM150 87q-1 3 1 2l23 -7q2 -2 0 -4l-3 -6l-1 -26q2 -50 -96 -81q-3 1 -1 3
q77 26 77 79l1 11q0 8 -1 19v10zM101 41q3 0 1 -2l-39 -25q-9 -7 -21 -14q-6 -3 -9 -5l-1 -2q-1 0 -2 2l-10 23q12 1 30 7zM229 -11q-1 -9 -8 -17q-6 -7 -11 2q-14 26 -39 42q-1 1 -1 2t2 1q57 -19 57 -30z" />
    <glyph glyph-name="uni80FD" unicode="&#x80fd;" 
d="M102 121l16 -12q2 -2 0 -4l-4 -5l-1 -102q-1 -15 -19 -27q-2 -2 -4 2q-1 11 -7 14q-2 2 1 2q14 -1 12 6l-1 105q0 4 -4 6l-33 -3l-1 -34l30 3q3 0 3 -2t-3 -3l-30 -3l-1 -34l31 3q3 0 3 -2q0 -3 -3 -3l-31 -3v-28q1 -17 -11 -27q-3 -2 -4 -2q-2 1 -2 3l1 114q0 8 -1 21v8
q0 3 2 2l17 -8l34 3zM205 71l12 -12l2 -2l-2 -1q-33 -13 -62 -20l-1 -19q0 -14 13 -14q21 -3 42 1q12 5 17 23q1 2 2 1q1 0 2 -2q-2 -13 4 -19q8 -12 -5 -18q-23 -9 -55 -4q-36 4 -36 37v51v20q0 3 2 1l20 -9q2 -1 0 -3l-4 -7l-1 -36q32 14 47 32q2 2 3 0zM138 210l21 -10
q2 -1 0 -3l-4 -7l-4 -61q-1 -9 12 -10q19 -3 40 1q10 2 17 17q1 1 2 1t1 -2q-2 -12 5 -16q8 -8 -4 -15q-25 -11 -59 -6q-32 5 -30 37l2 73q0 3 1 1zM90 170q-1 3 2 2q23 -14 29 -24q2 -3 0 -8q-3 -7 -6 -11q-9 -7 -12 3v2q-1 5 -4 11q-43 -8 -68 -13q-5 -2 -5 1l-2 10
q-1 3 2 3q9 3 13 9q26 26 37 54q0 2 1 2q0 1 2 -1l18 -16q3 -3 -2 -6q-3 -2 -8 -7q-24 -22 -38 -35l50 1q-4 12 -9 23zM200 177l13 -13q1 -1 0 -2q0 -1 -2 -1q-11 -5 -43 -14q-1 0 -2 1l1 2q20 12 31 26q1 1 2 1z" />
    <glyph glyph-name="uni89E3" unicode="&#x89e3;" 
d="M159 119l16 -9q2 -1 0 -2l-6 -9q-3 -4 -5 -7h19v7l-1 27l20 -7q3 -1 1 -5l-2 -4v-17l15 1l10 10l13 -12q1 -3 -2 -3l-36 -1v-34l21 1l12 12l15 -14q2 -3 -1 -3l-47 -2v-11l1 -34q-3 -15 -14 -27q-3 -3 -5 -3t-2 3l1 56v16h-2q-5 0 -13 -1q-9 0 -14 -1l-8 6l37 1l1 34h-24
q-8 -12 -17 -21q0 -1 -1 -1v-19q2 -43 -29 -60q0 14 -6 16q-1 2 0 3q18 -2 16 35l1 105l-27 -1l10 -4q3 -1 1 -5l-2 -7l-1 -18h12q3 0 3 -2q0 -3 -3 -3h-12l-1 -35h14q2 0 2 -2t-3 -3h-13l-1 -37q0 -15 -11 -25q-2 -2 -4 -2q-1 1 -1 3l2 61l-18 -1q-6 -54 -66 -97
q-2 -1 -2 1q-1 2 1 3q54 39 53 130l1 24q0 18 -1 28q-12 -12 -25 -22q-3 -2 -2 1q35 40 50 83l21 -10q2 -1 -1 -4l-5 -4q-1 -1 -3 -4q-1 -2 -7 -9l21 1l8 8l18 -12q0 -1 -1 -3l-9 -6l-25 -22h25l8 11l20 -11q2 -1 0 -3l-6 -7l-1 -71q14 29 17 50zM228 156q-2 -19 -23 -30
q-4 -1 -4 2q1 9 -6 12q-2 3 1 3q12 0 12 4l1 41h-39q-3 0 -9 -1q-6 0 -8 -1l-7 6l63 1l8 9l17 -11q2 0 0 -2l-5 -6l-1 -16v-11zM61 158l17 -9h13l13 31l-24 -1q-3 -3 -9 -10q-7 -7 -10 -11zM191 179q2 0 0 -2l-3 -3q-11 -16 -39 -44q-2 0 -2 2q18 26 27 54zM73 104
q0 -4 -1 -11q0 -16 -2 -24l18 1l1 34h-16zM74 136l-1 -27l16 1l1 34h-14z" />
    <glyph glyph-name="uni8BAF" unicode="&#x8baf;" 
d="M125 191q-10 0 -21 -2q1 1 -3 0l-9 7l98 2v1l9 12l21 -12q2 -1 0 -3l-8 -10q-6 -54 1 -110q6 -51 21 -66q1 0 2 -1q2 -3 5 0l9 8q3 1 2 -2q-3 -7 -3 -18q4 -15 -2 -19q-7 -5 -19 3q-47 29 -38 212l-50 -2l14 -6q3 -1 2 -4l-1 -9l-1 -58l9 1l11 12l14 -14q3 -2 -1 -2
l-33 -2v-61v-35q1 -16 -15 -38q-5 -5 -8 1l1 59l1 74l-32 -2q-3 0 -3 2q0 3 2 3l33 1v41q0 22 -1 37h-7zM117 61q3 1 2 -2l-44 -55l-2 -2q-13 -14 -17 -20l-1 -1q-1 -2 -3 -1l-18 18q-3 1 -1 2q10 4 25 14v119l-17 -1q-13 0 -22 -2l-9 7l46 2l11 13l20 -13q2 -1 0 -2l-6 -8
l-2 -99zM44 213q27 -10 34 -20q3 -10 -12 -22q-6 -4 -9 1q-8 28 -16 39q0 3 3 2z" />
    <glyph glyph-name="uni8BC4" unicode="&#x8bc4;" 
d="M130 185q-13 -1 -26 -3l-9 7l101 1l13 15l18 -17q2 -1 -1 -2l-71 -1l19 -10q3 0 1 -3l-5 -10v-79l44 1l14 14l18 -17q1 -2 -1 -2l-75 -2v-52l1 -27q-4 -18 -19 -29q-3 -1 -4 4l2 47v57l-28 -1q-14 -1 -27 -3l-7 8l62 1v63l-2 40h-18zM103 63q3 1 2 -2l-33 -48
q-3 -6 -11 -14q-4 -6 -6 -8q-1 -3 -4 -2l-17 16q-2 2 -1 3q10 6 22 15l-1 108l-16 -1q-10 0 -21 -2l-9 8l44 1l10 13l19 -13q2 0 0 -2l-5 -8l-5 -91zM206 169l23 -13l2 -1q0 -1 -2 -2l-5 -6q-4 -5 -13 -18q-21 -28 -33 -42l-2 1q15 30 30 81zM101 160q20 -13 29 -24
q7 -8 8 -15q1 -3 -1 -9q-1 -1 -1 -2q-4 -9 -10 -10q-8 -3 -8 7q-5 30 -19 51q-1 3 2 2zM38 208q29 -11 34 -21q2 -11 -11 -21q-7 -3 -10 3q-5 27 -15 37q-1 3 2 2z" />
    <glyph glyph-name="uni8BDD" unicode="&#x8bdd;" 
d="M178 174l-2 -12l-1 -31l44 1l12 13l17 -15q2 -3 -1 -3l-73 -2l-3 -54l19 1l11 14l22 -14q2 -1 0 -3l-5 -8l1 -58l2 -4q2 -4 -3 -4q-29 3 -82 3v-12q-10 -18 -20 -11l-1 104q0 2 3 1h1l16 -10l19 1v54l-29 -1q-16 0 -26 -3l-9 9l64 1v47q-8 0 -24 -2l-24 -3q-3 -1 -1 2
q74 22 99 34l14 -20q1 -1 1 -2t-2 -1q-3 0 -13 -1q-24 -3 -39 -5zM104 61q2 1 1 -2l-33 -48q-3 -3 -8 -11q-8 -8 -10 -11t-4 -1l-17 16q-1 1 -1 2l1 1q4 2 14 9q5 4 8 6l-1 107l-17 -1q-13 0 -20 -2l-9 8l43 1l11 13l19 -12q2 -1 0 -3l-5 -7l-5 -91zM136 64v-62l57 1l-1 64z
M38 208q29 -11 34 -21q2 -11 -11 -21q-7 -3 -10 3q-5 27 -15 37q-1 3 2 2z" />
    <glyph glyph-name="uni8BE5" unicode="&#x8be5;" 
d="M155 213l25 -8q3 0 1 -4q-3 -2 -3 -11l-1 -15h33l13 14l17 -15q1 -2 -1 -3l-79 -2l15 -9q2 -1 -2 -4q-16 -19 -50 -47l51 1q11 15 21 33l19 -13q3 -2 -2 -6q-49 -60 -125 -106q-2 -1 -3 1q-1 1 0 3q50 34 85 81q-42 -8 -60 -15q-3 -1 -3 1l-5 18q-1 3 2 3q9 0 15 4
q16 18 35 55l-24 -1q-17 0 -28 -3l-8 9h61l-1 37q0 2 2 2zM211 101l19 -15q2 -1 -1 -4q-23 -25 -47 -46q39 -15 49 -27q6 -14 -8 -27q-7 -6 -10 4q-13 30 -35 48q-31 -27 -104 -64q-2 -1 -3 0t0 3q81 43 140 128zM103 63q3 1 2 -2l-33 -48q-3 -6 -11 -14q-4 -6 -6 -8
q-1 -3 -4 -2l-17 16q-2 2 -1 3q10 6 22 15l-1 108l-16 -1q-10 0 -21 -2l-9 8l44 1l10 13l19 -13q2 0 0 -2l-5 -8l-5 -91zM38 208q29 -11 34 -21q2 -11 -11 -21q-7 -3 -10 3q-5 27 -15 37q-1 3 2 2z" />
    <glyph glyph-name="uni8D26" unicode="&#x8d26;" 
d="M212 191l14 -18q2 -2 -2 -5q-30 -24 -70 -48v-9l56 2l13 13l15 -14q2 -1 -1 -3l-59 -2q4 -68 72 -110q2 -1 0 -4q-13 -1 -28 -15q-48 48 -48 129l-20 -1l-1 -95l29 16q3 0 2 -2l-33 -28q-3 -2 -8 -6q-8 -6 -11 -9q-2 -3 -3 -1l-14 11q-1 2 0 2q10 4 22 8l-1 104l-20 -1
q-2 0 -3 2q0 2 3 3h20v96l25 -12l-6 -8v-61q33 31 57 66zM35 34q-2 -3 -4 -3q-2 1 -2 4l1 117q0 42 -1 48q0 2 2 1l22 -13h1l35 1l8 11l18 -11q2 -1 0 -3l-6 -8v-68v-39q-2 -14 -16 -24q-2 -2 -4 2l1 136l-38 -2l-4 -6l-2 -116q-1 -12 -11 -27zM60 158q-1 3 2 3l14 -5
q4 0 2 -8l-1 -70q4 -62 -69 -110q-1 -1 -3 -1q-1 1 0 3q58 41 55 108v80zM77 39q32 -12 40 -23q2 -8 -6 -17q-6 -5 -10 1q-10 24 -26 37q-1 3 2 2z" />
    <glyph glyph-name="uni8D44" unicode="&#x8d44;" 
d="M133 216l15 -13q0 -1 -1 -3q-4 -4 -9 -10l55 2l10 9l21 -17q1 -2 1 -4q-1 -1 -3 -1q-13 1 -30 -11q-3 -1 -3 2l5 18l-39 -2l12 -4q2 0 0 -2l-4 -4v-3q3 -22 83 -44q1 -1 0 -2q0 -1 -2 -1q-11 0 -26 -18q-46 21 -57 60q-9 -39 -72 -57q-5 -1 -2 2q57 20 61 73l-15 -1
q-20 -21 -49 -40q-3 -1 -2 2q34 26 49 68q0 2 2 1zM82 100v-64q-3 -14 -14 -22q-5 -3 -6 0l1 30v44l-1 23q0 2 2 1l18 -7l91 2l10 11l20 -11q2 -1 0 -3l-6 -7v-20l1 -25q0 -19 -15 -30q-6 -5 -8 2v79zM144 82q1 -1 0 -2l-3 -5q5 -85 -124 -108q-3 1 0 4q63 19 82 40
q20 20 21 70l-1 13zM138 22q65 -11 75 -22q6 -11 -2 -23q-4 -9 -15 1q-23 26 -59 41q-2 3 1 3zM101 197l-36 -55q-7 -13 -7 -25q1 -7 -6 -9q-7 -4 -15 -1q-4 3 0 9q0 1 1 4q2 5 2 9q1 7 -4 14q-1 2 1 1q10 -3 13 1l49 54q3 1 2 -2zM43 211q28 -10 29 -18q0 -11 -10 -17
q-7 -2 -9 4q-1 19 -11 28q-1 1 -1 2t2 1z" />
    <glyph glyph-name="uni8DD1" unicode="&#x8dd1;" 
d="M169 144l22 -14q2 -1 0 -3l-6 -9l-1 -43l2 -3q1 -2 -1 -2q-25 0 -48 -2l-1 -51q-2 -13 12 -13q34 -1 62 2q13 1 20 22q0 2 2 2t1 -2q0 -14 7 -18q16 -11 -8 -23q-23 -8 -76 -5q-37 1 -35 45v82v10q-1 6 -1 9q-13 -19 -27 -36q-2 -1 -3 0t0 2q28 39 51 120l22 -10l2 -1
q0 -1 -2 -2l-2 -3q-2 -4 -7 -13q-6 -13 -10 -19l60 3l11 13l19 -13q2 -1 0 -3l-6 -9l-4 -83q-1 -36 -36 -51q-2 -1 -3 -1t-1 2q3 18 -7 24q-2 1 -1 2q0 2 2 1q25 1 23 16l4 97l-64 -3q-7 -12 -15 -24l13 -7l21 1zM105 89q2 0 2 -2q0 -3 -2 -3l-24 -2l-2 -57l34 10q4 1 1 -2
l-58 -33q-4 -2 -14 -8l-9 -6t-4 0l-12 19q-2 3 1 3q8 1 17 4l-1 57q0 6 -1 16q0 12 -1 17l20 -8q2 -1 0 -3l-2 -6l-1 -69l14 4l-1 72q0 29 -1 37l24 -8q2 -2 0 -4l-3 -7l-1 -23zM91 199l19 -12v-2l-6 -7l-1 -42l1 -2q0 -2 -1 -2q-11 2 -56 -1q-2 -8 -10 -17q-5 -3 -6 1l2 56
q0 22 -1 26q0 1 3 1l16 -9l32 1zM49 185l-1 -49l34 1l1 49zM137 124v-50l23 2l1 49z" />
    <glyph glyph-name="uni8FB9" unicode="&#x8fb9;" 
d="M241 12q2 0 2 -1t-1 -2q-19 -9 -26 -33q-62 -2 -104 5q-20 3 -35 33q-3 6 -10 -1q-14 -17 -25 -40q-1 -3 -4 -1l-14 21v1q-1 1 1 1l34 27l2 92l-35 -2q-3 0 -3 3q-1 3 2 3l36 2l10 13l20 -14q3 -2 0 -5l-7 -9l-3 -79q-2 -36 160 -14zM205 177l21 -12q2 -1 0 -3l-6 -8
q0 -8 -1 -23q0 -37 -3 -61q-4 -35 -36 -51q-3 1 -3 3q2 14 -9 18q-2 3 1 4q24 -4 24 27q2 25 2 43q1 14 1 45l-32 -1v-14q6 -75 -75 -128q-2 -1 -3 1q-1 1 0 2q62 43 57 126l-1 12h-10q-4 0 -11 -1q-8 -1 -12 -2l-8 8l41 1v23l-1 26q-1 3 1 3l23 -8q3 0 1 -4l-2 -6v-34l31 1
zM36 205q36 -13 38 -26q1 -13 -12 -20q-9 -4 -11 4q-2 27 -16 39q-1 1 -1 2t2 1z" />
    <glyph glyph-name="uni8FD8" unicode="&#x8fd8;" 
d="M246 18q3 0 1 -3q-20 -11 -27 -36q-64 -2 -111 5q-19 2 -37 28q-3 7 -11 1q-14 -10 -28 -32q-2 -3 -4 -1l-12 19q-2 1 1 1l36 25l2 85l-40 -1q-3 0 -3 2q0 3 2 4l41 1l9 11l20 -13q3 -3 -1 -5l-7 -8l-1 -70q0 -18 20 -22q56 -11 150 9zM126 190q-3 0 -8 -1q-13 0 -19 -2
l-8 7l118 3l14 14l17 -15q1 -3 -2 -4l-64 -1l17 -8l1 -1t-1 -3l-3 -2l-6 -9q-4 -7 -14 -22v-64l1 -42q-2 -16 -19 -28q-5 0 -5 5v42l1 58q-24 -27 -64 -58q-2 -1 -3 0q0 1 1 3q40 38 65 83q-1 10 -5 21q0 3 4 3l10 -6l6 12q4 10 7 15h-41zM183 131q34 -15 46 -32
q3 -11 -10 -22q-7 -4 -10 4q-7 31 -27 48q-1 2 1 2zM39 207q32 -15 33 -29q-2 -13 -13 -16q-10 -2 -11 6q-2 26 -11 36q-1 1 0 2q0 1 2 1z" />
    <glyph glyph-name="uni8FD9" unicode="&#x8fd9;" 
d="M248 17q3 0 1 -4q-16 -7 -27 -35q-58 -3 -111 4q-19 3 -37 30q-3 7 -9 1q-18 -13 -30 -33q-1 -3 -4 -1l-12 19v1q-1 1 1 1l37 25l1 79l-39 -1q-3 0 -4 3q0 3 3 3l40 2l10 11l20 -14q3 -2 -1 -5l-8 -8l-2 -64q0 -17 21 -23q52 -12 150 9zM124 152q-19 -1 -27 -4l-8 9
l118 3l16 16l19 -18q1 -2 -2 -3l-49 -1l19 -10q3 -1 0 -4l-6 -8q-12 -24 -28 -43q31 -23 35 -34q2 -15 -10 -28q-8 -9 -13 5q-7 17 -26 41q-25 -28 -70 -58q-1 -1 -2 1q0 1 1 2q39 34 60 67q-13 15 -36 36q-2 1 -1 3q1 1 3 0q5 -3 17 -10q17 -10 25 -15q14 24 23 54zM41 202
q33 -13 35 -30q-1 -13 -15 -18q-8 -2 -10 7q-3 26 -12 39q-2 3 2 2zM138 212q35 -13 36 -29q-1 -12 -15 -17q-9 -1 -11 7q-3 26 -12 37v1q-1 2 2 1z" />
    <glyph glyph-name="uni90FD" unicode="&#x90fd;" 
d="M67 165q-14 0 -24 -3l-8 8h35l-2 43l26 -8q2 -1 0 -3q-3 -3 -4 -10l-1 -21h8l10 11l13 -13v-1q8 12 15 24l15 -14q2 -1 -1 -3l-5 -5q-18 -23 -34 -41h12l12 13l15 -15l1 -1q0 -1 -2 -2l-44 -1q-18 -18 -37 -34l37 1l10 12l20 -12q2 -2 0 -4l-6 -8v-61q0 -19 -16 -34
q-6 -3 -6 1q-2 15 -7 19l-34 -1q-4 -13 -12 -21q-4 -5 -6 0l1 93q-20 -15 -44 -30q-1 -1 -2 0q-1 2 0 3q26 18 46 36l1 14l9 -5q15 15 28 30l-35 -1q-16 0 -24 -2l-9 7l52 1v38h-3zM209 188l11 11l19 -14q2 -1 2 -2l-2 -2l-7 -7l-36 -59q46 -39 43 -69q-2 -24 -32 -34
q-2 -1 -2 2q1 16 -8 18q-2 3 1 3q19 -1 17 6q4 41 -25 73l19 69l-33 -1l-2 -128v-47q-1 -21 -14 -38q-7 -5 -7 0l2 67l3 171l18 -12v-2v-5h33zM65 84v-34l34 2q3 0 3 -2q-1 -3 -3 -3l-34 -1v-39l40 1v3l1 75zM119 166h-30l-1 -38h3q15 19 28 38z" />
    <glyph glyph-name="uni94C3" unicode="&#x94c3;" 
d="M39 126q-2 -1 -2 2q-1 2 1 3l47 1l10 11l14 -12q2 -2 0 -2l-33 -2v-43l13 1l10 11l14 -13q2 -2 0 -2l-37 -2l-2 -68l41 17q2 0 2 -1q1 -1 0 -2l-49 -32q-2 -1 -5 -4q-11 -8 -15 -13q-3 -2 -4 0l-12 18q-2 3 1 3q3 1 11 3q7 2 11 3l-1 76q-19 -1 -27 -4l-7 7l34 1v43h-15z
M99 100q-2 -1 -3 0t0 3q39 36 55 111l25 -10q2 -1 0 -3l-4 -2q11 -47 80 -94q2 -1 2 -3q0 -1 -3 -1q-14 2 -28 -10q-42 35 -53 106q-18 -51 -71 -97zM126 36q14 -5 27 -11q17 25 32 57l-35 -2q-13 0 -24 -3l-6 7l66 3l10 10l20 -15q2 -1 0 -3q1 0 0 -1l-9 -6
q-22 -25 -50 -49q23 -11 30 -20q3 -8 -8 -21q-7 -8 -12 3q-15 30 -42 49q-1 1 1 2zM49 216l24 -9q2 -1 0 -3l-3 -5q-2 -4 -5 -11l-6 -15l31 1l11 12l15 -14q2 -1 -1 -2l-58 -2q-19 -38 -53 -84q-3 0 -2 3q35 51 47 129zM150 143q27 -16 28 -26q-1 -10 -14 -15q-9 -3 -9 4
q2 22 -7 35q0 2 2 2z" />
    <glyph glyph-name="uni9519" unicode="&#x9519;" 
d="M213 68v-34l1 -24q-1 -18 -16 -33q-2 -2 -4 -2q-1 0 -2 3q-7 18 -11 19l-41 -1q-4 -11 -15 -19q-2 -2 -3 -2q-2 1 -1 4l1 90l-1 24l20 -11l46 2l12 10l20 -15q2 -1 0 -3zM136 106q-11 0 -24 -2q1 0 -1 0l-9 8h33v47q-2 0 -6 -1q-9 0 -14 -2l-9 8h29v4l-1 44l22 -8
q2 0 0 -4q-2 -1 -2 -10l-1 -25h23v4l-1 44l24 -7q2 -1 0 -4v-1q-3 -4 -3 -9v-27h8l12 13l14 -14l1 -2q-1 0 -3 -1l-32 -1l-1 -47h17l13 15l17 -17q1 -2 -2 -2zM39 127q-2 -1 -2 2q-1 2 1 3l46 2l11 11l13 -13q2 0 0 -2l-32 -1l-1 -43l15 1l11 11l14 -13q2 -2 0 -2l-41 -3
l-1 -67l40 23q5 2 2 -2l-44 -40q-2 -1 -5 -4q-11 -8 -15 -13q-1 -3 -4 -1l-13 16q-2 3 1 3q2 1 7 3q9 3 14 5l-1 76h-1q-18 -1 -28 -4l-7 7l36 2v44zM188 0l1 71q0 8 -10 7l-40 -1v-33l41 2q3 0 3 -2q0 -3 -3 -3l-42 -1v-40h50zM48 216l24 -8q2 -2 0 -4l-3 -4
q-4 -13 -10 -26l26 1l11 11l14 -13q2 -2 -1 -2l-52 -2q-16 -37 -52 -86q-3 0 -2 3q33 58 45 130zM153 159v-47l23 1v47z" />
    <glyph glyph-name="uni952E" unicode="&#x952e;" 
d="M122 196l17 -12q2 -1 -1 -3l-6 -8l-19 -53l12 1l7 10l18 -10q2 -1 1 -3l-7 -10q-6 -41 -21 -68q24 -30 124 -37q2 0 2 -1q0 -2 -2 -2q-17 -3 -30 -25q-75 15 -101 53q-13 -23 -49 -52q-2 0 -2 3q32 29 44 63q-9 19 -13 47l3 1q5 -22 14 -37q8 27 12 62h-14v-1
q-9 -9 -16 -10q-2 -1 -3 0t0 4l22 73l-22 -1q-4 3 0 5l22 1zM174 211l20 -7q1 0 2 -1l-1 -2l-3 -6v-13h15l7 10l17 -10q2 0 0 -3l-5 -7v-17h4l10 11l13 -13q1 -2 -1 -2l-26 -1v-24l3 -5q1 -2 -1 -2q-13 1 -28 1h-8l-1 -23l16 1l10 10l13 -13q2 -1 -1 -2l-38 -1v-12l1 -12
l24 1l11 11l13 -13q1 -2 -1 -2l-47 -2l1 -20q-2 -13 -14 -25q-6 -3 -7 2l1 43l-29 -1q-3 2 0 5h29v14v10h-23q-2 0 -2 2t2 2l23 1l1 23h-18q-2 0 -2 3q0 2 2 2h18v25l-30 -1q-2 0 -2 3q0 2 2 2l30 1v15v7h-20q-3 -1 -3 2q-1 3 2 3l21 1v29zM27 120q-3 0 -3 2q1 2 3 3l40 1
l9 11l13 -12q1 -2 -2 -2l-22 -1v-40l4 1l12 11l13 -13q2 -2 0 -2l-29 -2l-1 -56l30 20q3 2 1 -2l-50 -54q-1 -2 -3 1l-10 14q-2 2 1 3l13 9l-1 64h-3q-14 0 -22 -2l-6 6l31 1v40zM45 215l23 -9q2 -2 0 -4l-3 -4q-10 -19 -17 -33l22 1l10 12l14 -14q2 0 0 -2l-49 -1
q-17 -31 -40 -59q-2 -2 -2 2q26 41 42 111zM192 125h15v25l-15 -1v-24zM207 177h-15v-23l15 1v22z" />
    <glyph glyph-name="uni95ED" unicode="&#x95ed;" 
d="M153 25q-1 -21 -24 -31q-3 -1 -3 1q0 11 -7 17q-2 0 -2 2q0 1 2 1q15 0 15 5v74q-30 -35 -77 -67l-1 -24q0 -13 -16 -29q-4 -2 -4 0l1 73l1 104l-1 29l23 -8q3 -1 1 -4l-3 -9l-1 -128q34 28 70 90h-18q-3 0 -8 -1q-15 0 -21 -2l-8 8l61 2v35q0 3 2 2l19 -4q3 -3 2 -6
l-1 -26h8l13 12l14 -14q1 -2 -1 -3l-34 -1zM148 184q-16 0 -31 -2l-8 6l87 3l12 11l19 -13h1q1 -1 -1 -3l-8 -10l1 -100l2 -55q2 -29 -31 -47q-2 -1 -3 -1q-1 1 -1 3q0 14 -10 21q-2 3 1 3q21 -1 19 10l-1 175zM63 215q2 -1 7 -3q30 -11 29 -17q0 -14 -11 -20q-7 -5 -9 3
q-8 23 -17 34q-1 1 -1 2t2 1z" />
    <glyph glyph-name="uni9ED1" unicode="&#x9ed1;" 
d="M187 198l10 11l22 -12q2 -1 0 -3l-5 -8v-58l2 -5q1 -2 -1 -2q-22 2 -76 0v-33l46 2l14 14l18 -16q1 -2 -1 -3l-78 -2v-37l75 1l16 16l19 -18q1 -2 -1 -3l-201 -4q-19 0 -28 -3l-7 9l104 1v37l-38 -1q-16 0 -27 -3l-8 8l73 2l1 33h-22q-17 -1 -27 -1q-5 -9 -16 -16
q-6 -3 -6 3l1 37v41q0 14 -1 21q0 1 2 1l20 -12zM67 190v-64l49 1v64zM188 193l-48 -1l-1 -64q14 26 22 54l21 -13q2 -1 0 -3l-4 -2q-11 -14 -36 -37l46 2v64zM184 29q26 -11 37 -23q10 -7 2 -19q-4 -6 -9 -8q-12 -8 -14 5q-7 30 -18 43q-1 3 2 2zM58 29q10 -20 3 -40
q-8 -15 -21 -16q-8 9 0 24q15 9 16 30q1 3 2 2zM138 24v2q1 0 3 -1q24 -16 27 -26q2 -9 -11 -16q-11 -5 -12 5q0 23 -7 36zM94 23q1 4 4 1q20 -20 20 -28q-1 -11 -13 -15t-11 7q4 21 0 35zM79 176q-1 2 2 2q24 -12 26 -20q1 -9 -11 -15q-9 -4 -9 4q-1 20 -8 29z" />
    <glyph glyph-name="uniFF0C" unicode="&#xff0c;" 
d="M48 -33l-3 1q26 17 23 34h-4q-18 1 -19 16q1 15 19 16q19 0 19 -26q-6 -27 -35 -41z" />
    <glyph glyph-name="uniFF1F" unicode="&#xff1f;" 
d="M63 38h-8v6q0 20 14 40q16 22 15 40q-1 33 -21 34q-15 -1 -19 -20q12 -25 -10 -30q-14 0 -14 17q3 39 44 41q41 -3 44 -41q1 -27 -23 -42q-22 -16 -22 -39v-6zM59 19q15 -1 16 -18q-1 -13 -16 -15q-14 -1 -15 15q0 17 15 18z" />
  </font>
</defs>
</svg>
